<?xml version="1.0" encoding="utf-8"?>
<!-- Generator: Adobe Illustrator 25.2.3, SVG Export Plug-In . SVG Version: 6.00 Build 0)  -->
<svg version="1.1" id="Capa_1" xmlns="http://www.w3.org/2000/svg" xmlns:xlink="http://www.w3.org/1999/xlink" x="0px" y="0px"
	 viewBox="0 0 352 176" style="enable-background:new 0 0 352 176;" xml:space="preserve">
<style type="text/css">
	.st0{opacity:0.4;}
	.st1{fill:#DDE6EB;}
	.st2{fill:#FFFFFF;}
	.st3{fill:#C6D5DE;}
	.st4{fill:#596C78;}
	.st5{fill:#F5F6F7;}
	.st6{fill:#697A85;}
	.st7{fill:none;}
	.st8{opacity:0.4;fill:#DDE6EB;enable-background:new    ;}
	.st9{fill:#AFC4D1;}
	.st10{fill:#FCFCFC;}
	.st11{opacity:0.39;}
	.st12{fill:#B2C3CC;}
	.st13{fill:none;stroke:#596C78;stroke-width:5;stroke-linecap:round;stroke-miterlimit:10;}
	.st14{opacity:0.48;}
</style>
<g>
	<rect class="st7" width="352" height="176"/>
	<g>
		<g class="st0">
			<path class="st1" d="M273.9,22.1c22.7,6.9,40,28.8,40.6,49.5c0.3,11.1-0.9,37.2-9,48.3c-6,8.4-12.4,16.5-20.7,23.2
				c-2.6,2.1-5.4,4.1-8.2,6c-1.9,1.2-3.8,2.4-5.8,3.6c-2.6,1.5-5.2,2.8-7.9,4.1c-3.9,1.8-7.9,3.4-11.9,4.7l-0.5,0.2
				c-0.7,0.2-1.3,0.4-2,0.6c-4,1.2-8.1,2.3-12.2,3c-1.2,0.2-2.4,0.4-3.6,0.6c-0.6,0.1-1.1,0.2-1.7,0.2c-5.1,0.7-10.3,1.1-16.7,1.5
				c-1.2,0.1-10.9,0.8-26.3,1h-0.1c-2.8,0-5.7,0-8.9,0h-0.1c-1.8,0-3.8,0-5.7-0.1c-4.3-0.1-16.7-0.6-54.1-2.4l-1.4-0.1h-0.3
				c-0.3,0-0.7,0-1-0.1c-0.1,0-0.1,0-0.2,0c-0.8-0.1-1.7-0.1-2.6-0.2h0c-4.1-0.4-9.6-1.2-16.1-1.7l-1-0.1l-0.4,0l-0.5,0
				c-10-0.8-21.8-3.4-33.2-13.1c-16.3-14-19-33.3-23.7-54.2c-0.7-3.4-1.3-13.3-1-16.9c2.2-23.9,2.3-38.9,26.2-51.3
				c0,0,23.5-16.4,54.6-14.8s93.3-5.3,118.8-0.1L273.9,22.1z"/>
		</g>
		<g>
			<path class="st3" d="M69,103.4c-1.2,0-2.6-0.6-4.2-1.7c-1.8-1.4-2.8-3.4-3.4-5.1c-0.6-1.4-0.8-2.9-0.7-4.4c0,0,0,0,0-0.1
				c0.2-1.7,1.4-3.2,3-3.8c1.6-0.5,3.3-0.2,4.7,0.8c2.6,1.8,4.2,4.8,4.4,7.9c0.1,2.3-0.4,4.3-1.5,5.4c-0.1,0.1-0.1,0.1-0.2,0.2
				C70.5,103.2,69.8,103.4,69,103.4z M62.6,92.4c-0.1,1.2,0.1,2.4,0.6,3.5v0c0.5,1.4,1.3,3.2,2.8,4.3c1,0.7,2.8,1.8,3.9,1.1l0.1-0.1
				c0.6-0.5,1.2-2,1-4c-0.1-1.3-0.6-4.6-3.6-6.6c0,0-0.1,0-0.1-0.1c-0.9-0.6-2-0.8-3-0.5C63.4,90.5,62.7,91.4,62.6,92.4L62.6,92.4z"
				/>
			<path class="st3" d="M72.5,113.9c-0.5,0-0.9-0.4-0.9-0.9c-0.1-10-5.4-16.3-5.4-16.4c-0.3-0.4-0.3-1,0.1-1.3s1-0.3,1.3,0.1l0,0
				c0.2,0.3,5.7,6.9,5.9,17.6C73.4,113.5,73,113.9,72.5,113.9L72.5,113.9z"/>
			<path class="st1" d="M77.8,130.2h-12c-0.5,0-0.9-0.3-0.9-0.8L63,113.2c0-0.3,0.1-0.5,0.2-0.7c0.2-0.2,0.4-0.3,0.7-0.3h15.9
				c0.3,0,0.5,0.1,0.7,0.3c0.2,0.2,0.3,0.5,0.2,0.7l-2,16.2C78.7,129.9,78.3,130.2,77.8,130.2z M66.7,128.4H77l1.8-14.4H65
				L66.7,128.4z"/>
			<polygon class="st3" points="78.4,117.3 65.4,117.3 65.8,121.4 77.9,121.4 			"/>
		</g>
		<path class="st1" d="M252.8,151.3c0,5.5-30.8,12.9-68.6,10c-36.4-2.8-87.7-5-87.7-10.6c0-5.5,49.8-9.4,87.7-9.4
			S252.8,145.8,252.8,151.3z"/>
		<g>
			<path class="st2" d="M192.7,154.1c0,0-0.1,0-0.1,0l-60.5-3.7c-1.2-0.1-2.2-1.1-2.2-2.3V25.2c0-1.2,1-2.3,2.2-2.3l60.5-3.4
				c0,0,0.1,0,0.1,0c0.6,0,1.2,0.2,1.6,0.6c0.5,0.4,0.7,1.1,0.7,1.7v129.9c0,0.6-0.3,1.3-0.7,1.7
				C193.9,153.9,193.3,154.1,192.7,154.1z"/>
			<path class="st4" d="M192.7,21.8v129.9l-60.5-3.7V25.2L192.7,21.8 M192.7,17.1c-0.1,0-0.2,0-0.3,0l-60.5,3.4
				c-2.5,0.1-4.4,2.2-4.4,4.7v122.8c0,2.5,1.9,4.5,4.4,4.7l60.5,3.7c0.1,0,0.2,0,0.3,0c1.2,0,2.3-0.5,3.2-1.3
				c0.9-0.9,1.5-2.1,1.5-3.4V21.8c0-1.3-0.5-2.5-1.5-3.4C195.1,17.6,193.9,17.1,192.7,17.1L192.7,17.1z"/>
		</g>
		<g>
			<path class="st4" d="M181,79h-42.8c-1.3,0-2.3-1.1-2.3-2.3V35.1c0-1.3,1-2.3,2.3-2.3l42.8-1.3c0.6,0,1.2,0.2,1.7,0.7
				c0.5,0.4,0.7,1,0.7,1.7v42.9C183.3,77.9,182.3,79,181,79z M140.5,74.3h38.1V36.2l-38.1,1.2V74.3z"/>
		</g>
		<g>
			<path class="st4" d="M162.9,54.6h-14.3c-1.3,0-2.3-1.1-2.3-2.3s1.1-2.3,2.3-2.3h14.3c1.3,0,2.3,1.1,2.3,2.3
				S164.2,54.6,162.9,54.6z"/>
		</g>
		<polygon class="st3" points="180.6,134.5 138.2,134.2 138.2,85.2 180.6,85.6 		"/>
		<path class="st4" d="M180.6,136.8C180.6,136.8,180.6,136.8,180.6,136.8l-42.5-0.2c-1.3,0-2.3-1.1-2.3-2.3V85.2
			c0-0.6,0.3-1.2,0.7-1.7c0.4-0.4,1-0.7,1.7-0.7c0,0,0,0,0,0l42.5,0.4c1.3,0,2.3,1.1,2.3,2.3v48.9c0,0.6-0.2,1.2-0.7,1.7
			C181.8,136.6,181.2,136.8,180.6,136.8z M140.5,131.9l37.8,0.2V87.9l-37.8-0.4V131.9z"/>
		<g>
			<polygon class="st2" points="180.1,133 153.1,136.3 152.4,109.2 180.4,109.2 			"/>
			<polygon class="st3" points="177.9,131.4 154.2,111.3 154.7,134.6 			"/>
		</g>
		<path class="st4" d="M153.1,138.7c-0.6,0-1.1-0.2-1.5-0.6c-0.5-0.4-0.8-1.1-0.8-1.7l-0.7-27.2c0-0.6,0.2-1.2,0.7-1.7
			c0.4-0.5,1-0.7,1.7-0.7h28c0.6,0,1.2,0.3,1.7,0.7c0.4,0.4,0.7,1.1,0.7,1.7l-0.3,23.8c0,1.2-0.9,2.2-2.1,2.3l-27,3.4
			C153.3,138.7,153.2,138.7,153.1,138.7z M154.8,111.5l0.5,22.2l22.4-2.8l0.3-19.4H154.8z"/>
		<path class="st2" d="M192.7,154.1c-0.5,0-1.1-0.2-1.5-0.5c-0.5-0.4-0.9-1.1-0.9-1.8V21.8c0-0.7,0.3-1.3,0.8-1.8
			c0.4-0.4,1-0.6,1.5-0.6c0.1,0,0.2,0,0.3,0l26.5,3.6c1.2,0.2,2,1.2,2,2.3v121c0,1.1-0.8,2.1-1.9,2.3l-7.5,1.5l-18.9,3.8
			C193,154.1,192.9,154.1,192.7,154.1z"/>
		<g class="st11">
			<polygon class="st9" points="193.9,128.9 218,39.6 217.8,145.4 194.2,150.4 			"/>
			<path class="st9" d="M216.5,50.6l-0.2,93.7l-20.7,4.4l-0.3-19.5L216.5,50.6 M219.4,28.6l-27,100.2l0.4,23.4l26.4-5.6L219.4,28.6
				L219.4,28.6z"/>
		</g>
		<path class="st4" d="M192.7,21.8l26.5,3.6v121l-7.5,1.5l-18.9,3.8V21.8 M192.7,17.1c-1.1,0-2.2,0.4-3.1,1.2
			c-1,0.9-1.6,2.2-1.6,3.5v129.9c0,1.4,0.6,2.7,1.7,3.6c0.8,0.7,1.9,1.1,3,1.1c0.3,0,0.6,0,0.9-0.1l18.9-3.8l7.5-1.5
			c2.2-0.4,3.8-2.4,3.8-4.6v-121c0-2.4-1.7-4.3-4.1-4.7l-26.5-3.6C193.1,17.2,192.9,17.1,192.7,17.1L192.7,17.1z"/>
		<polyline class="st12" points="170.9,107 170.9,96.7 140.1,87.6 139.8,106.5 170.9,106.8 		"/>
		<g>
			<polygon class="st2" points="153.1,136.3 109.7,134.8 109.7,94.2 152.4,94.2 			"/>
			<path class="st4" d="M153.1,138.7C153.1,138.7,153,138.7,153.1,138.7l-43.5-1.5c-1.3,0-2.3-1.1-2.3-2.3V94.2
				c0-1.3,1.1-2.3,2.3-2.3h42.7c1.3,0,2.3,1,2.3,2.3l0.7,42.2c0,0.6-0.2,1.3-0.7,1.7C154.3,138.5,153.7,138.7,153.1,138.7z
				 M112,132.6l38.7,1.3L150,96.5h-38V132.6z"/>
		</g>
		<g>
			<path class="st4" d="M135.2,114.1h-14.3c-1.3,0-2.3-1.1-2.3-2.3s1.1-2.3,2.3-2.3h14.3c1.3,0,2.3,1.1,2.3,2.3
				S136.5,114.1,135.2,114.1z"/>
		</g>
		<g class="st14">
			<rect x="172.9" y="98.7" class="st4" width="3.6" height="6.1"/>
			<polygon class="st4" points="178.5,96.7 170.9,96.7 170.9,106.8 178.5,106.8 178.5,96.7 			"/>
		</g>
		<path class="st4" d="M179.3,87.7l-0.4-0.1c0.2-0.3,0.5-0.7,0.8-1c0.6-0.6,0.9-1,1-1.1l-1.3-1.1c0,0-0.3,0.4-0.9,1
			c-0.4,0.3-3.1,2.4-9.5,4.5c0,0-0.1,0-0.1,0c-0.1,0-0.1,0-0.2,0.1c-6.1,1.9-15.5,3.8-29.3,4.1c-0.5,0-0.9,0.4-0.9,0.9
			c0,0.5,0.4,0.9,0.9,0.9c0,0,0,0,0,0c5.2-0.1,9.8-0.4,13.8-0.9l0,0.3c0.6,0,1.7,0.1,1.9,0.6c0.1,0.2,0.3,0.9-1.1,2.7
			c-1.1,0.2-2.3,0.3-3.4,0.4l0.1,1.8c1.3-0.1,2.5-0.2,3.7-0.4c0.7,0.4,2.2,1.3,2.4,2.4c0.1,0.8-0.4,1.7-1.5,2.7l-1.4,1.2l0.1,0
			c-2,0.9-3.2,1.2-3.3,1.2l0.2,0.9l0.2,0.9c0.2,0,2.4-0.6,5.9-2.4c2,0.5,5.1,1.4,6.4,2.9l0.6,1.4c0.2-0.1,2.7-1.3,6.2-6
			c0.2-0.2,0.3-0.4,0.4-0.6C173.2,101.2,176.3,95.8,179.3,87.7z M167.8,105.7c-0.5-1.9-1.9-3-3.1-3.5c0.8-0.6,1.7-1.3,2.6-2.1
			l0.3,0.2c0.5,0.3,1.8,1.2,2,2.3c0.1,0.4,0,0.7-0.2,1.1C168.8,104.4,168.2,105.1,167.8,105.7z M163.8,99.9
			c-0.4-0.7-1.2-1.3-1.9-1.6c1.3-0.5,2.6-1,3.8-1.6c0.4,0,1.1,0,1.4,0.3c0.1,0.1,0.2,0.4,0.2,0.6c-1.1,1-2.2,2-3.3,2.8
			C164,100.2,163.9,100,163.8,99.9z M163.8,93.1c0.4,0,1.1,0.2,1.3,0.6c0.1,0.3,0,0.8-0.3,1.4c-1.1,0.5-2.2,1-3.3,1.4
			c0-0.1,0.1-0.3,0.1-0.4c0.1-0.9-0.4-1.7-1-2.3C161.7,93.5,162.8,93.3,163.8,93.1z M168.8,96.3c-0.1-0.2-0.2-0.3-0.3-0.5
			c-0.1-0.1-0.3-0.3-0.4-0.4c0.8-0.5,1.6-0.9,2.4-1.4c0,0,0,0,0,0c0,0,0.1,0.2,0,0.6C169.9,95.2,169.3,95.7,168.8,96.3z M171.9,93.1
			C171.9,93.1,171.9,93,171.9,93.1c0.1-0.1,0.1-0.2,0.2-0.3C172.1,92.9,172,93,171.9,93.1z M171.4,91.2c0-0.1-0.1-0.2-0.1-0.3
			c0.4-0.1,0.7-0.3,1-0.4C172,90.7,171.7,90.9,171.4,91.2z M169.4,91.6c0.2,0,0.3,0.1,0.4,0.2c0,0,0,0.3-0.2,0.7
			c-0.8,0.5-1.7,1-2.6,1.5c0-0.4-0.1-0.8-0.3-1.1c-0.1-0.2-0.2-0.3-0.3-0.4C167.5,92.1,168.4,91.8,169.4,91.6z M169,99.2
			c0.1-0.3,0.1-0.5,0.1-0.7c0.6-0.5,1.2-1.1,1.8-1.7l0.2,0c0.5,0,1.4,0.2,1.6,0.6c0.2,0.3,0.1,0.7-0.1,1c-0.6,1.1-1.2,2.1-1.7,3
			C170.4,100.3,169.5,99.6,169,99.2z M173.8,96c-0.4-0.4-0.9-0.6-1.4-0.8c1.2-1.2,2.4-2.6,3.6-4C175.3,92.9,174.5,94.5,173.8,96z
			 M158.3,94.1c0.7,0.5,1.5,1.2,1.5,1.8c0,0.4-0.7,1-1.8,1.4l-1.6,0.7c0.6-1.2,0.7-2.3,0.2-3.1c-0.1-0.2-0.2-0.3-0.3-0.5
			C157,94.3,157.7,94.2,158.3,94.1z M158.5,102.4c-0.2-1.1-0.9-2-1.6-2.6c0.8-0.2,1.5-0.4,2.3-0.6c1.1,0.2,2.6,0.7,3.2,1.6
			c0.1,0.2,0.2,0.5,0.2,0.7c-1.5,1.1-3,2.1-4.3,2.8C158.5,103.7,158.6,103.1,158.5,102.4z M164.7,108.8c-1.3-1.4-3.5-2.4-5.4-2.9
			c1.1-0.6,2.3-1.4,3.5-2.3l0.3,0c0.3,0,3.1,0.4,3.1,3.6l0.2,0C165.7,107.9,165.2,108.4,164.7,108.8z"/>
		<path class="st4" d="M248.9,146.1c-1.1-0.6-2.2-1.2-3.2-1.9c0,0,0,0,0,0c0,0-0.6-0.5-1.4-0.9c-1.3-0.9-2.5-1.8-3.7-2.8
			c0-0.1-0.1-0.2-0.2-0.3c-0.2-0.2-0.6-0.5-1-0.7c-8-7-13.3-16.4-14.9-26.9c-0.1-0.5-0.5-0.8-1-0.7c-0.5,0.1-0.8,0.5-0.7,1
			c0.3,1.7,0.6,3.3,1.1,5c0,0,0,0,0,0c-0.5-0.1-0.9,0.2-1,0.6c-0.4,0-0.7,0.3-0.8,0.7c-2.6,14.7-2,25.4,1.7,34.8
			c0.1,0.3,0.5,0.6,0.8,0.6c0.1,0,0.2,0,0.3-0.1c0.5-0.2,0.7-0.7,0.5-1.1c-0.1-0.3-0.3-0.7-0.4-1c0,0,0,0,0.1,0
			c0.3,0,0.5-0.1,0.7-0.3c2.8-3.5,9.6-2.7,11.5-2.4c1.5,1.7,3,3.3,4.2,4.6c0.2,0.2,0.4,0.3,0.6,0.3c0.2,0,0.4-0.1,0.6-0.2
			c0.4-0.3,0.4-0.9,0-1.2c-1.2-1.3-2.5-2.7-3.9-4.3c0.8-2.3,1.8-3.8,2.9-4.1c0.6-0.2,1.2,0,1.7,0.2c1.5,1,3,1.9,4.6,2.8
			c0.1,0.1,0.3,0.1,0.4,0.1c0.3,0,0.6-0.2,0.8-0.5C249.5,146.9,249.4,146.3,248.9,146.1z M227.9,128c0.6,1.1,1.2,2.1,1.9,3.1
			c-0.5,0-1,0-1.5,0.2c-0.4,0.2-0.8,0.4-1.2,0.7c-0.5-1.2-1-2.3-1.3-3.5c-0.1-0.2-0.1-0.4-0.2-0.5c0.1-0.3,0.4-0.7,0.7-0.8
			c0.4-0.1,1,0.3,1.3,0.5C227.7,127.9,227.8,128,227.9,128z M232.6,135c-0.2,0-0.4,0-0.6,0.1c-0.9,0.2-1.8,0.7-2.5,1.7
			c-0.6-1-1.1-1.9-1.6-2.9c0.3-0.4,0.6-0.6,0.9-0.8c0.9-0.4,2,0.1,2,0.1c0.1,0.1,0.2,0.1,0.4,0.1C231.7,133.8,232.1,134.4,232.6,135
			z M226.7,135.2c0.3,0.6,0.7,1.3,1.1,1.9c-1.4-0.1-3.2,0-4.5,0.8c-0.4,0.3-0.7,0.6-1,1c0-0.9-0.1-1.8-0.1-2.7c0,0,0,0,0,0
			c0.1,0,0.2,0.1,0.3,0.1c0.3,0,0.7-0.2,0.8-0.6c0.3-0.6,0.6-1,1-1.2c0.7-0.2,1.6,0.2,1.8,0.4L226.7,135.2z M222.9,125.8
			c0.1,0.2,0.2,0.5,0.3,0.7c-0.2,0-0.3,0-0.5,0c0-0.3,0.1-0.7,0.1-1C222.9,125.7,222.9,125.8,222.9,125.8z M222.8,129.8
			c-0.1-1.1,0.1-1.5,0.2-1.5c0.1-0.1,0.5,0,0.9,0.2c0.1,0.2,0.1,0.3,0.2,0.5c0.4,1.2,0.8,2.5,1.4,3.7c-0.5-0.1-1-0.1-1.6,0.1
			c-0.7,0.2-1.2,0.7-1.7,1.3c0-1.1,0.1-2.3,0.2-3.5C222.6,130.5,222.8,130.2,222.8,129.8z M222.5,141.5
			C222.5,141.5,222.5,141.5,222.5,141.5c0.5,0,0.9-0.3,0.9-0.8c0.1-0.6,0.3-1.1,0.8-1.4c1.2-0.8,3.5-0.6,4.7-0.4
			c0.5,0.8,1,1.6,1.6,2.3c-2.5,0-5.6,0.9-7.5,3.7C222.8,143.9,222.6,142.7,222.5,141.5z M232.3,140.8c-0.6-0.8-1.2-1.7-1.7-2.5
			c0.5-0.9,1.1-1.4,1.8-1.5c1.1-0.2,2.1,0.7,2.2,0.7c0.1,0.1,0.3,0.2,0.4,0.2c0.2,0.2,0.5,0.5,0.7,0.7c-0.5,0-0.9,0.1-1.3,0.2
			C233.6,138.9,232.8,139.5,232.3,140.8z M226.6,125.5c-0.2,0-0.5,0-0.7,0c-0.4,0.1-0.7,0.3-1,0.5c-0.1-0.3-0.2-0.6-0.3-0.8
			c-0.7-1.9-0.9-2.3-0.2-5.5C225,121.7,225.7,123.6,226.6,125.5z M224.4,150.8c-0.3-1-0.6-2-0.9-3c1.7-4.9,6.4-4.9,8.3-4.6
			c1.2,1.6,2.4,3.1,3.6,4.5C232.3,147.4,227.1,147.6,224.4,150.8z M237.5,147.3c-1.3-1.4-2.5-3-3.8-4.6l0-0.1c0.1-1.2,0.5-2,1.2-2.3
			c1-0.4,2.4,0.1,3.4,0.7c0.8,0.7,1.7,1.5,2.6,2.1C239.5,143.6,238.3,145,237.5,147.3z"/>
		<g>
			<polygon class="st1" points="259.2,35.5 266.9,25.9 266.9,35.5 			"/>
			<path class="st3" d="M266.9,23h-19.6c-1,0-1.8,0.8-1.8,1.8v23.2c0,1,0.8,1.8,1.8,1.8h19.6c1,0,1.8-0.8,1.8-1.8V24.7
				C268.6,23.8,267.8,23,266.9,23z M247.2,37.2h8.9v10.7h-8.9V37.2z M266.9,47.9h-8.9V37.2h8.9v-1.8h-8.9V24.7h-1.8v10.7h-8.9V24.7
				h19.6V47.9z"/>
		</g>
	</g>
</g>
</svg>
