<?xml version="1.0" encoding="utf-8"?>
<!-- Generator: Adobe Illustrator 25.2.3, SVG Export Plug-In . SVG Version: 6.00 Build 0)  -->
<svg version="1.1" id="Capa_1" xmlns="http://www.w3.org/2000/svg" xmlns:xlink="http://www.w3.org/1999/xlink" x="0px" y="0px"
	 viewBox="0 0 352 176" style="enable-background:new 0 0 352 176;" xml:space="preserve">
<style type="text/css">
	.st0{opacity:0.4;}
	.st1{fill:#DDE6EB;}
	.st2{fill:#FFFFFF;}
	.st3{fill:#C6D5DE;}
	.st4{fill:#596C78;}
	.st5{fill:#F5F6F7;}
	.st6{fill:#697A85;}
	.st7{fill:none;}
	.st8{opacity:0.4;fill:#DDE6EB;enable-background:new    ;}
</style>
<g>
	<g id="_ES_Taza_1_">
		<g id="Taza_contorneada_1_">
			<path id="Contenedor_1_" class="st8" d="M315.3,92.5c-0.1,34.6-53.8,67.1-126,69.7c-19.7,0.7-44.4,2.2-64.1,2.1
				c-12-0.1-22.2-0.9-28.4-2.3c-44-10.4-52-15.3-58.7-39.6c-1.3-4.7-1.5-9.4-1.5-14c0-15.1,7.6-29.6,20.9-43.5l0,0
				c2.2-2.3,4.5-4.5,7-6.7c1.6-1.5,3.4-2.9,5.1-4.4l0,0c2.1-1.7,4.4-3.5,6.7-5.2l0,0c1.3-1,2.8-2,4.3-3c0.8-0.6,1.6-1.1,2.5-1.7
				l0.4-0.3l0,0l0.2-0.1c1.9-1.3,3.7-2.5,5.5-3.7l0.5-0.3l0,0c0.2-0.1,0.3-0.2,0.5-0.3c0.4-0.3,0.8-0.5,1.2-0.8l0.9-0.6
				c0.4-0.2,0.7-0.4,1.1-0.7c0.7-0.4,1.4-0.8,2.1-1.2c1.5-0.9,3-1.7,4.6-2.5l0.1,0l0.5-0.2c1.7-0.9,3.4-1.7,5.2-2.4
				c0.7-0.3,1.4-0.6,2.1-0.9c0.4-0.2,0.8-0.3,1.2-0.5c6-2.2,12.3-3.8,18.6-4.7c36.5-5.3,36.9-10.5,68.2-12.4
				c3.4-0.2,6.6-0.5,9.7-0.5c22.2,0,34.8,4.9,46.7,16.4c9.5,9.2,31.1,19.8,42.6,28.9C309.3,68.3,315.4,80.5,315.3,92.5z"/>
			<g id="Taza_1_">
				<path class="st3" d="M109.2,29.3v48.3c0,4.5-3.7,8.2-8.2,8.2H71.5c-2.6,0-4.8-2.1-4.8-4.8V56.4h1.2V81c0,2,1.6,3.6,3.6,3.6h29.6
					c3.9,0,7-3.1,7-7V29.8C108.5,29.6,108.8,29.5,109.2,29.3z"/>
				<path class="st2" d="M106,30.6v48.1c0,2.1-1.7,3.9-3.9,3.9H68.5c-2.1,0-3.9-1.7-3.9-3.9V58.2c4-3.5,8.3-7,13-10.4
					c1.7-1.2,3.4-2.5,5.2-3.7c0.3-0.2,0.7-0.4,1-0.7C91.3,38.4,98.1,34,106,30.6z"/>
				<path class="st1" d="M100.8,33.6v38.3c0,2.4-1.9,4.4-4.4,4.4H74.1c-2.4,0-4.4-1.9-4.4-4.4v-18l0,0c2.1-1.7,4.4-3.5,6.7-5.2l0,0
					c1.3-1,2.8-2,4.3-3c0.8-0.6,1.6-1.1,2.5-1.7l0.4-0.3l0,0c1.9-1.3,3.8-2.6,5.8-3.8l0.5-0.3l0,0c0.2-0.1,0.3-0.2,0.5-0.3
					c0.4-0.3,0.8-0.5,1.2-0.8l0.9-0.6c0.4-0.2,0.7-0.4,1.1-0.7c0.7-0.4,1.4-0.8,2.1-1.2c1.5-0.9,3-1.7,4.6-2.5l0.1,0l0.5-0.2l0,0
					C100.8,33.2,100.8,33.4,100.8,33.6z"/>
				<path class="st2" d="M91.1,42.1v22.8c0,1.9-1.5,3.4-3.4,3.4l0,0h-3.7c-1.9,0-3.4-1.5-3.4-3.4l0,0V45.6c0.7-0.5,1.4-1,2.1-1.4
					l0.4-0.2l0.4-0.3l0,0c1.9-1.3,3.8-2.6,5.8-3.8l0.5-0.3l0,0C90.6,40.1,91.1,41.1,91.1,42.1z"/>
				<polygon class="st2" points="140.2,95.1 202.1,95.1 202.1,151.6 152,151.6 140.9,140.5 137.6,129.2 137.6,95.1 				"/>
				<path class="st1" d="M202.1,89.8h-61.8c0-1.5,1.2-2.7,2.7-2.7h59.1V89.8z"/>
				<path class="st3" d="M180.7,152.8c11.8,0,21.4-9.6,21.4-21.4V86.7h12V135c0,0-2.1,11-8.2,13.3c-2.3,0.9-6.2,3.5-9.9,4.3
					c-5.9,1.2-11.5,0.2-11.5,0.2"/>
				<rect x="138.4" y="89.8" class="st6" width="77.8" height="5.3"/>
				<path class="st4" d="M189.8,155.4H164c-16,0-29-13-29-29v-36c0-4.7,3.8-8.5,8.5-8.5h66.9c4.7,0,8.5,3.8,8.5,8.5v36
					C218.8,142.4,205.8,155.4,189.8,155.4z M143.5,87.2c-1.8,0-3.2,1.4-3.2,3.2v36c0,13.1,10.6,23.7,23.8,23.8h25.8
					c13.1,0,23.7-10.6,23.8-23.8v-36c0-1.8-1.4-3.2-3.2-3.2H143.5z"/>
				<path class="st3" d="M119.8,112.1c0,4.9,4,8.9,8.9,8.9h6.3v2.5h-6.3c-6.3,0-11.4-5.1-11.4-11.4c0-6.3,5.1-11.4,11.4-11.4h6.3
					v2.5h-6.3C123.8,103.3,119.8,107.2,119.8,112.1z"/>
				<path class="st4" d="M128.7,95.4c-9.2,0-16.7,7.5-16.7,16.7s7.5,16.7,16.7,16.7h11.6V95.4H128.7z M134.9,123.6h-6.3
					c-6.3,0-11.4-5.1-11.4-11.4c0-6.3,5.1-11.4,11.4-11.4h6.3V123.6z"/>
				<path class="st4" d="M128.7,103.2c-4.9,0-8.9,4-8.9,8.9s4,8.9,8.9,8.9l0,0h6.3h5.3v-17.8H128.7z M134.9,115.8h-6.3
					c-2,0-3.6-1.6-3.6-3.6c0-2,1.6-3.6,3.6-3.6l0,0h6.3V115.8z"/>
				<path class="st4" d="M176.5,76.6c-1.5,0-2.6-1.2-2.6-2.6c0-0.5,0.1-0.9,0.3-1.3l0.5-0.9c2.7-4.9,3.5-10.6,2.1-16
					c-1.5-5.9-0.9-12.2,1.8-17.7l0.4-0.9c0.6-1.3,2.2-1.9,3.5-1.3c1.3,0.6,1.9,2.2,1.3,3.5c0,0,0,0.1-0.1,0.1l-0.4,0.9
					c-2.1,4.4-2.6,9.4-1.4,14.1c1.8,6.7,0.8,13.9-2.6,19.9l-0.5,0.9C178.3,76,177.5,76.6,176.5,76.6z"/>
				<path class="st4" d="M165.8,73.8c-1.5,0-2.6-1.2-2.6-2.6c0-0.5,0.1-0.9,0.3-1.3l0.3-0.6c1.7-3,2.2-6.5,1.3-9.9
					c-1.1-4.1-0.6-8.5,1.2-12.3l0.3-0.6c0.6-1.3,2.2-1.9,3.5-1.2c1.3,0.6,1.9,2.2,1.2,3.5l-0.3,0.6c-1.3,2.7-1.6,5.7-0.9,8.6
					c1.2,4.7,0.6,9.6-1.8,13.8l-0.3,0.6C167.6,73.3,166.8,73.8,165.8,73.8z"/>
				<path class="st4" d="M188.8,73.8c-1.5,0-2.6-1.2-2.6-2.6c0-0.5,0.1-0.9,0.3-1.3l0.3-0.6c1.7-3,2.2-6.5,1.3-9.9
					c-1.1-4.1-0.6-8.5,1.2-12.3l0.3-0.6c0.6-1.3,2.2-1.9,3.5-1.2c1.3,0.6,1.9,2.2,1.2,3.5l-0.3,0.6c-1.3,2.7-1.6,5.7-0.9,8.6
					c1.2,4.7,0.6,9.6-1.8,13.8l-0.3,0.6C190.6,73.3,189.8,73.8,188.8,73.8z"/>
				<path class="st1" d="M229.5,85.6c0,0,8.4,5,11,21.4c0,0,7.2-2.6,1.6-16c-0.9-3.1-3.5-5.5-6.7-5.9L229.5,85.6z"/>
				<path class="st3" d="M253.4,145.9c-1.8,0-3.5-1.9-4.2-3c-0.2-0.4-0.4-0.8-0.6-1.2c-0.1-0.1-0.1-0.3-0.2-0.4l-9.7-29.2
					c-0.1-0.2-0.1-0.3-0.2-0.5l-1.2-2.2c-0.4-0.7-1-1.2-1.7-1.3c-1.9-0.5-3.6-1.4-5-2.6c-3.2-2.7-6.2-8.6-5.7-13.8
					c0.2-3,1.7-5.4,4.1-6.9c0.5-0.3,1.1-0.6,1.7-0.8c0.4-0.1,0.8-0.2,1.3-0.3l0.1,0c2.8-0.5,5.4,0.3,7.7,2.4
					c3.8,3.6,5.5,10,4.9,14.1c-0.3,1.9-1,3.7-2,5.3c-0.4,0.6-0.6,1.4-0.4,2.1l0.6,2.4c0,0.2,0.1,0.3,0.2,0.5l12.3,28.2
					c0.1,0.1,0.1,0.3,0.2,0.4c0.2,0.5,0.3,1,0.4,1.5c0.4,2.9-0.2,4.7-1.7,5.1C253.8,145.8,253.6,145.9,253.4,145.9z M233.7,85.4
					c-0.4,0-0.9,0-1.3,0.1l-0.1,0c-0.4,0.1-0.7,0.1-1.1,0.2l-0.1,0c-0.4,0.2-0.8,0.4-1.2,0.6c-2,1.2-3.1,3-3.3,5.5
					c-0.4,4.6,2.4,10,5.1,12.3c1.3,1.1,2.7,1.8,4.3,2.3c1.2,0.3,2.2,1.1,2.8,2.2l1.2,2.2c0.1,0.2,0.2,0.5,0.3,0.7l9.7,29.2l0.1,0.3
					c0.1,0.3,0.3,0.6,0.5,0.9c0.7,1.2,2.1,2.3,2.9,2.1c0.4-0.1,0.7-1.2,0.4-3.1c-0.1-0.4-0.2-0.8-0.3-1.1c0-0.1-0.1-0.2-0.1-0.3
					l-12.2-28.2c-0.1-0.2-0.2-0.5-0.3-0.8l-0.6-2.4c-0.3-1.2-0.1-2.5,0.6-3.5c0.9-1.4,1.5-2.9,1.7-4.6l0,0c0.5-3.6-1.1-9.4-4.4-12.6
					C237.1,86.1,235.4,85.4,233.7,85.4z"/>
				<path class="st1" d="M119,150.4l2.4,3.1c0.3,0.4,0.8,0.5,1.2,0.4l3-1c0.6-0.2,1.1-0.6,1.3-1.2c0.7-2,2.2-6.5,0.3-6.4
					c-1.9,0.1-5.9,2.5-7.8,3.6C118.8,149.2,118.6,149.8,119,150.4C118.9,150.3,118.9,150.3,119,150.4
					C118.9,150.3,119,150.4,119,150.4z"/>
				<path class="st3" d="M112.5,143.5c-0.8,0.5-0.7,1.7-0.1,2.4c0.8,0.8,1.6,1.8,2.3,1.4c0.8-0.4,1.7-1.8,2.2-2.6
					c0.3-0.4,0.2-1-0.2-1.4C116.1,142.7,114.8,142.1,112.5,143.5z"/>
			</g>
		</g>
	</g>
	<rect class="st7" width="352" height="176"/>
</g>
</svg>
