<svg xmlns="http://www.w3.org/2000/svg" viewBox="0 0 24 24"><defs><style>.b52b1f9a-be24-4719-b34d-adf5ec242a9f{fill:none;}.e8308550-a6ad-4da3-977f-86caba00ac31{fill:#1E3645;}</style></defs><g id="bc227bc6-a810-4bcd-bed4-f1b91a412ca8" data-name="Kit_4"><g id="af3e81d1-923c-47ea-aa17-f43fa4275f81" data-name="Grid_long_arrow_left"><rect class="b52b1f9a-be24-4719-b34d-adf5ec242a9f" x="0.01" width="24" height="24"/><path class="e8308550-a6ad-4da3-977f-86caba00ac31" d="M22,12a1,1,0,0,1-1,1H5.43l4.46,4.44a1,1,0,0,1,0,1.44,1,1,0,0,1-.72.29,1,1,0,0,1-.72-.29L2.28,12.7a1,1,0,0,1,0-1.43L8.45,5.11A1,1,0,1,1,9.89,6.55L5.44,11H21A1,1,0,0,1,22,12Z"/><path class="e8308550-a6ad-4da3-977f-86caba00ac31" d="M4.43,12l-.07.07a.19.19,0,0,1,0-.08.17.17,0,0,1,0-.07Z"/><path class="e8308550-a6ad-4da3-977f-86caba00ac31" d="M4.43,12l-.07.07a.19.19,0,0,1,0-.08.17.17,0,0,1,0-.07Z"/><path class="e8308550-a6ad-4da3-977f-86caba00ac31" d="M4.43,12l-.07.07a.19.19,0,0,1,0-.08.17.17,0,0,1,0-.07Z"/></g></g></svg>