<svg xmlns="http://www.w3.org/2000/svg" width="24" height="24" viewBox="0 0 24 24"><defs><style>.a{fill:none;}.b{}</style></defs><g transform="translate(-870 -1274)"><rect class="a" width="24" height="24" transform="translate(870 1274)"/><path class="b" d="M7.585-6l3.127-3.127a.983.983,0,0,0,0-1.39l-.7-.7a.983.983,0,0,0-1.39,0L5.5-8.085,2.373-11.212a.983.983,0,0,0-1.39,0l-.7.7a.983.983,0,0,0,0,1.39L3.415-6,.288-2.873a.983.983,0,0,0,0,1.39l.7.7a.983.983,0,0,0,1.39,0L5.5-3.915,8.627-.788a.983.983,0,0,0,1.39,0l.7-.7a.983.983,0,0,0,0-1.39Z" transform="translate(877 1292)"/></g></svg>
