<?xml version="1.0" encoding="utf-8"?>
<!-- Generator: Adobe Illustrator 25.2.3, SVG Export Plug-In . SVG Version: 6.00 Build 0)  -->
<svg version="1.1" id="Capa_1" xmlns="http://www.w3.org/2000/svg" xmlns:xlink="http://www.w3.org/1999/xlink" x="0px" y="0px"
	 viewBox="0 0 352 176" style="enable-background:new 0 0 352 176;" xml:space="preserve">
<style type="text/css">
	.st0{opacity:0.4;}
	.st1{fill:#DDE6EB;}
	.st2{fill:#FFFFFF;}
	.st3{fill:#C6D5DE;}
	.st4{fill:#596C78;}
	.st5{fill:#F5F6F7;}
	.st6{fill:#697A85;}
	.st7{fill:none;}
	.st8{opacity:0.4;fill:#DDE6EB;enable-background:new    ;}
	.st9{fill:#AFC4D1;}
	.st10{fill:#FCFCFC;}
	.st11{opacity:0.39;}
	.st12{fill:#B2C3CC;}
	.st13{fill:none;stroke:#596C78;stroke-width:5;stroke-linecap:round;stroke-miterlimit:10;}
	.st14{opacity:0.48;}
</style>
<g>
	<g id="_ES_Montaña_1_">
		<g id="Montaña_contorneada-2_1_">
			<g class="st0">
				<path class="st1" d="M305.5,115.6c-6,8.4-12.4,16.5-20.7,23.2c-2.6,2.1-5.4,4.1-8.2,6c-1.9,1.2-3.8,2.4-5.8,3.6
					c-2.6,1.5-5.2,2.8-7.9,4.1c-3.9,1.8-7.9,3.4-11.9,4.7l-0.5,0.2c-0.7,0.2-1.3,0.4-2,0.6c-4,1.2-8.1,2.3-12.2,3
					c-1.2,0.2-2.4,0.4-3.6,0.6c-0.6,0.1-1.1,0.2-1.7,0.2c-5.1,0.7-10.3,1.1-16.7,1.5c-1.2,0.1-10.9,0.8-26.3,1h-0.1
					c-2.8,0-5.7,0-8.9,0h-0.1c-1.8,0-3.8,0-5.7-0.1c-4.3-0.1-16.7-0.6-54.1-2.4l-1.4-0.1h-0.3c-0.3,0-0.7,0-1-0.1
					c-0.1,0-0.1,0-0.2,0c-0.8-0.1-1.7-0.1-2.6-0.2h0c-4.1-0.4-9.6-1.2-16.1-1.7l-1-0.1l-0.4,0l-0.5,0c-10-0.8-21.8-3.4-33.2-13.1
					c-16.3-14-19-33.3-23.7-54.2c-0.7-3.4-1.3-13.3-1-16.9c3-32.3,41.4-65.6,61.2-63.6c25.5,2.6,49,17.2,74.4,22
					c0.2,0,0.4,0.1,0.6,0.1c0.5,0.1,1,0.2,1.4,0.3l0,0l0.8,0.1c0.7,0.1,1.5,0.2,2.2,0.3l0.2,0c8.6,1.1,17.3,1.1,25.9-0.3
					c0.3-0.1,0.7-0.1,1.1-0.2c0.3-0.1,0.8-0.1,1.1-0.2c0.7-0.1,1.5-0.3,2.2-0.4c6.6-1.4,13-3.6,19.1-6.6c7.4-3.8,14.2-8.7,22.6-10.7
					c7.5-1.7,15.8-0.9,23.5,1.5c22.7,6.9,40,28.8,40.6,49.5C314.8,78.4,313.5,104.5,305.5,115.6z"/>
			</g>
			<path class="st2" d="M125.3,137.2L125,138l-9.7,23.6l0,0l0,0.1c-0.1,0-0.1,0-0.2,0c-0.8-0.1-1.7-0.1-2.6-0.2h0
				c-4.1-0.4-9.6-1.2-16.1-1.7l-1-0.1c1-1.8,2.1-3.5,2.1-3.6c2.4-4.3,6.8-12.5,8.8-18.1c3-8.4,4.2-2.8,6.7,2.9c0,0,0,0,0,0
				c0.1,0.4,0.5,0.6,0.9,0.5c0.2-0.1,0.4-0.2,0.4-0.4c1.2-2.5,2.2-5,3-7.1c2.8-7.8,4.3-5.5,6.2-1c0.2,0.4,0.4,0.9,0.5,1.3
				C124.4,135,124.9,136.1,125.3,137.2z"/>
			<path class="st1" d="M125.7,138c-0.4,0.2-1,0-1.2-0.5c0,0,0,0,0,0c-0.3-0.8-0.7-1.6-1-2.3l-0.3-0.7c-0.1-0.2-0.2-0.4-0.2-0.6
				c-0.8-1.9-1.9-4.5-2.4-4.5c0,0-0.8,0.1-2.5,4.6c-0.7,2-1.8,4.4-3,7.2c-0.3,0.8-1.2,1.2-2,0.9c-0.4-0.2-0.7-0.5-0.9-0.9v0
				c-0.4-0.9-0.7-1.7-1-2.5c-0.7-1.6-1.6-3.9-2.1-4.2c-0.2,0.1-0.8,0.6-1.9,3.7c-1.9,5.3-5.9,12.8-8.9,18.2
				c-0.1,0.1-0.8,1.4-1.9,3.3l-1-0.1l-0.4,0l-0.5,0c0,0,0,0,0,0c1-1.7,2.3-3.8,2.3-4c3-5.4,6.9-12.8,8.8-18c1.3-3.5,2.2-4.8,3.5-4.9
				h0c1.6,0,2.4,2.1,3.7,5.3c0.3,0.7,0.6,1.4,0.9,2.1c1.2-2.6,2.1-4.8,2.8-6.7c1.5-4,2.6-5.7,4.1-5.7h0c1.4,0,2.3,1.5,3.3,3.9
				c0.2,0.4,0.4,0.9,0.6,1.4c0.1,0.3,0.3,0.6,0.4,1c0.4,1,0.8,1.9,1.2,2.9C126.3,137.3,126.1,137.8,125.7,138
				C125.7,138,125.7,138,125.7,138z"/>
			<g id="Cloud_1_">
				<path id="Cloud-2_1_" class="st2" d="M252.5,75c0.6,0,1.5,0,2.2,0c0.5,0,1-0.4,1-1l0,0c0-2.2-1.5-2.8-3.5-3.2h0
					c-0.3-3.8-3.6-6.7-7.5-6.4c-0.6,0-1.2,0.2-1.7,0.3l0,0c-2.2-3.7-7-4.8-10.6-2.6c-2.2,1.4-3.6,3.7-3.7,6.4l0,0
					c-2.4,0.6-3.9,2.7-3.9,5.3c0,1.5,2.3,1.2,5.4,1.2H252.5z"/>
				<path class="st3" d="M252.9,70.1c-0.7-4.3-4.7-7.2-9-6.5c-0.2,0-0.4,0.1-0.6,0.1c-2.8-3.9-8.2-4.8-12-2c-2,1.4-3.3,3.7-3.6,6.1
					c-2.4,0.9-4,3.2-4,6c0,0.5,0.2,1,0.5,1.4c0.7,0.7,1.8,0.8,3.3,0.8c0.3,0,0.7,0,1.1,0c0.4,0,0.9,0,1.3,0h22.5c0.3,0,0.6,0,1,0
					c0.4,0,0.8,0,1.1,0h0.1c1,0,1.9-0.8,1.9-1.9C256.5,71.3,254.5,70.5,252.9,70.1z M253.4,74.1c-0.3,0-0.7,0-0.9,0H230
					c-0.5,0-0.9,0-1.4,0c-1.1,0-2.9,0-3.1-0.3c0,0,0-0.1,0-0.1c0-2.2,1.3-4,3.3-4.5c0.4-0.1,0.7-0.4,0.7-0.8
					c0.1-3.8,3.3-6.8,7.1-6.6c2.3,0.1,4.5,1.3,5.7,3.3c0.2,0.4,0.7,0.5,1,0.4c3.2-1.1,6.6,0.7,7.7,3.9c0.2,0.5,0.3,1,0.3,1.5
					c0,0.4,0.3,0.7,0.7,0.8c2.2,0.5,2.8,1,2.8,2.3c0,0.1-0.1,0.1-0.1,0.1C254.3,74.1,253.8,74.1,253.4,74.1z"/>
			</g>
			<g id="Cloud-3_1_">
				<path id="Cloud-4_1_" class="st2" d="M94.7,86.8c-0.4,0-1,0-1.4,0c-0.4,0-0.7-0.3-0.7-0.6l0,0c0-1.4,1-1.8,2.3-2.1l0,0
					c0.2-2.5,2.4-4.4,4.9-4.2c0.4,0,0.8,0.1,1.1,0.2l0,0c1.5-2.4,4.6-3.2,7-1.7c1.5,0.9,2.4,2.5,2.5,4.2l0,0
					c1.6,0.4,2.6,1.8,2.6,3.5c0,1-1.5,0.8-3.5,0.8L94.7,86.8z"/>
				<path class="st3" d="M111.3,81.8c-0.5-3.3-3.5-5.6-6.8-5.1c-1.6,0.2-3,1-3.9,2.3c-0.4-0.1-0.7-0.1-1.1-0.1
					c-2.6,0-4.9,1.9-5.4,4.4c-1,0.3-2.4,0.9-2.4,2.8c0,0.8,0.7,1.5,1.5,1.5l0,0c0.2,0,0.5,0,0.8,0h0.6h14.8c0.3,0,0.6,0,0.9,0h0.7
					c1.1,0,1.9-0.1,2.4-0.6c0.3-0.3,0.5-0.7,0.4-1.1C113.9,84.1,112.9,82.5,111.3,81.8z M110.4,85.9c-0.3,0-0.6,0-0.9,0H94.7h-0.6
					h-0.6c0.1-0.5,0.3-0.7,1.6-1c0.4-0.1,0.6-0.4,0.7-0.8c0.2-2,1.9-3.6,4-3.4c0.3,0,0.6,0.1,0.9,0.2c0.4,0.1,0.8,0,1-0.4
					c1.2-2,3.8-2.6,5.8-1.4c1.2,0.7,2,2,2,3.4c0,0.4,0.3,0.8,0.7,0.9c1.1,0.3,1.9,1.3,1.9,2.5C111.6,85.9,111,85.9,110.4,85.9
					L110.4,85.9z"/>
			</g>
			<path class="st2" d="M231.5,161.6c-0.6,0.1-1.1,0.2-1.7,0.2c-5.1,0.7-10.3,1.1-16.7,1.5c-1.2,0.1-10.9,0.8-26.3,1h-9.1
				c-1.8,0-3.8,0-5.7-0.1c-4.3-0.1-16.7-0.6-54.1-2.4l-1.4-0.1l0.3-0.2l1.7-1.7l0.2-0.2l29.3-29.1l66.3-8.9l0.2,0l1.7,4v0
				L231.5,161.6z"/>
			<path class="st3" d="M216.3,125.6l-0.3,0.1c-47.6,10.5-82.1,26.3-97.1,34l-0.2,0.1c-1.3,0.6-2.4,1.2-3.4,1.8l0,0l-0.2,0.1
				c-0.8-0.1-1.7-0.1-2.6-0.2l11.1-26.2l0.5-1.1l0.5-1.1l9.1-21.4l1.5-3.7l3.6-8.5v0l10.9-25.7l0,0l1.7-3.9l1.8-1.1l0,0l6-3.7l0,0
				l3.1-1.9c3.2-1.3,6.5-2.2,9.9-2.7c1.7-0.3,3.5-0.4,5.3-0.3c3.1,0.1,6.1,0.7,8.5,2.2l3.7,2.5l0.8,1l0,0l7,8.1l13.2,35.9l0.6,1.7
				l1.5,4.2L216.3,125.6L216.3,125.6z"/>
			<path class="st2" d="M136,108.1c0,0,12.2-42.2,22.3-42.9l10.9-3.6H181l9.4,4.1l5.3,4.1l11.3,25.3l4.8,14.7l-3.8,7.6l-2.4,0.1
				L188,94.1l-18.2,21.3l-11.5-13.2l-16,15.8L136,108.1z"/>
			<path class="st4" d="M235.2,161c-1.2,0.2-2.4,0.4-3.6,0.6c-0.6,0.1-1.1,0.2-1.7,0.2c-0.5-1.4-1-2.5-1.3-3.2l-12.6-32.9
				c-0.5-1.3-1-2.7-1.5-4l-2.1-5.6c-0.5-1.3-1-2.7-1.5-4c-0.3-0.7-0.5-1.3-0.7-2c-7.2-18.7-13.5-35.3-13.6-35.5
				c-2.2-5.6-9-9.4-14.2-11c-1.6-0.4-3.2-0.7-4.9-0.9c-1.7-0.1-3-0.1-3.3-0.1c-0.1,0-0.2,0-0.2,0c0,0-0.7,0-1.8,0
				c-1.7,0.1-4.3,0.3-6.5,0.9c-5.2,1.5-12,5.3-14.2,11L138.2,109c-0.2,0.5-0.4,1.1-0.6,1.7l-1.8,4.8l-9.3,24.3l-7.6,19.8l0,0.1
				l-0.4,1c-0.1,0.2-0.2,0.6-0.5,1.1l-1.4-0.1h-0.3c-0.3,0-0.7,0-1-0.1c-0.1,0-0.1,0-0.2,0c-0.8-0.1-1.7-0.1-2.6-0.2h0
				c0.5-1.3,1-2.3,1.1-2.6l8-20.9c0.5-1.4,1-2.7,1.5-4c0.2-0.4,0.3-0.8,0.5-1.2c0.2-0.4,0.3-0.8,0.5-1.2
				c20.2-52.8,22.5-58.8,22.5-58.8c2.9-7.4,11-12.1,17.6-14.1c2.8-0.8,6-1.1,8-1.2c0.9,0,1.5,0,1.8,0h0c0,0,1.5,0,3.5,0.1
				c2.2,0.1,4.3,0.5,6.4,1.1c6.6,2,14.7,6.7,17.6,14.1c0,0.1,31.8,83.1,32.1,84S234.5,159.2,235.2,161z"/>
			<path class="st5" d="M176.6,44.3l24.6,1.2c1.6,0.1,2.9-1.1,3-2.7c0-0.1,0-0.1,0-0.2V31.9c0-1.6-1.2-2.8-2.8-2.9l-24.2-0.8
				c-1.6-0.1-2.9,1.2-3,2.8l-0.4,10.5C173.8,42.9,175.1,44.3,176.6,44.3z"/>
			<path class="st3" d="M200.1,28.5c-8.4,0.5-16.8-3.5-25.2-1.7c-1.3,0.3,0.1,1.6,0.1,2.9v12.8c0,1.8-0.8,3.1,1,2.9
				c8.3-1.3,16.7,2.6,25,1.8c2.6-0.3,4.5-2.4,4.5-5v-8.6c0-2.8-2.3-5-5.1-5C200.3,28.4,200.2,28.4,200.1,28.5z"/>
			<path class="st6" d="M205.4,28.2c-1.4-1.3-3.2-2-5-2c-0.1,0-0.3,0-0.4,0c-3.4,0.2-6.9-0.4-10.5-1c-4.8-0.9-9.9-1.7-15-0.6h0l0,0
				c-0.8,0.2-1.5,0.7-1.9,1.4c-0.6,1.2-0.2,2.3,0.1,3c0.1,0.2,0.2,0.4,0.2,0.7v12.8c0,0.3,0,0.7-0.1,1c-0.1,0.9-0.3,2.3,0.8,3.3
				c0.7,0.7,1.6,0.9,2.8,0.7c0.4-0.1,0.8-0.1,1.1-0.1c3.6-0.3,7.3,0.3,11.2,0.9c3.2,0.5,6.5,1.1,9.9,1.1c0.9,0,1.8,0,2.7-0.1
				c3.7-0.4,6.5-3.5,6.5-7.2v-8.6C207.7,31.5,206.8,29.6,205.4,28.2z M203.2,42.1c0,1.5-1.1,2.7-2.5,2.8c-3.7,0.4-7.5-0.3-11.4-0.9
				c-3.2-0.5-6.5-1.1-9.8-1.1c-0.7,0-1.4,0-2.1,0.1l-0.3,0c0-0.2,0-0.3,0-0.5V29.7c0-0.4,0-0.7-0.1-1c0.1,0,0.2,0,0.4,0
				c3.7-0.4,7.4,0.3,11.3,1c3.2,0.6,6.5,1.1,9.9,1.1c0.5,0,1.1,0,1.6,0c0.8-0.1,1.6,0.2,2.2,0.8c0.6,0.5,0.9,1.3,0.9,2.1L203.2,42.1
				z"/>
			<path class="st6" d="M174.7,67.8c-1.5,0-2.6-1.2-2.6-2.6v-38c0-1.5,1.2-2.6,2.6-2.6c1.5,0,2.6,1.2,2.6,2.6v38
				C177.3,66.7,176.2,67.8,174.7,67.8z"/>
			<path class="st4" d="M211.9,109.3h-0.2c-0.4,0-0.9,0.2-1.3,0.4c-0.2,0.1-0.3,0.2-0.5,0.4c-0.2,0.2-0.4,0.5-0.5,0.7l-2.7,3.8
				c-3.7-4.9-15.4-20.9-15.8-21.4c-0.8-1.1-2-1.7-3.3-1.7h0c-1.3,0-2.5,0.6-3.3,1.7l-7.4,10.1l-7.6,9.6l-9.3-11.3
				c-1.4-1.8-4-2.1-5.8-0.7c-0.2,0.1-0.3,0.3-0.4,0.4c-1.7,1.8-9.5,10.4-12.5,13.7l-3.2-5.9c0,0,0,0,0-0.1c-0.5-0.8-1.3-1.3-2.2-1.3
				c-0.3,0-0.6,0-0.9,0.1c-1.4,0.5-2.1,2-1.7,3.3c0,0.1,0.1,0.2,0.1,0.3c0,0,0,0.1,0.1,0.1l2.1,3.9l1.9,3.4c0.6,1.1,1.8,1.9,3,2.1
				c0.2,0,0.4,0,0.6,0c1.1,0,2.2-0.5,2.9-1.2c0,0,0,0,0.1-0.1c0.1-0.1,9.3-10.2,12.6-13.9l9.4,11.4c1.4,1.8,4,2.1,5.8,0.7
				c0.3-0.2,0.5-0.4,0.7-0.7l8.5-10.8c0,0,0-0.1,0.1-0.1l6.5-8.9c3.3,4.5,14.3,19.6,15.9,21.5c1.4,1.8,4,2.1,5.8,0.7
				c0.3-0.2,0.6-0.5,0.8-0.9l2-2.9l0.3-0.5l1.4-2c0.2-0.2,0.3-0.5,0.4-0.7c0.1-0.3,0.1-0.6,0.1-0.9
				C214.5,110.5,213.3,109.3,211.9,109.3z"/>
		</g>
	</g>
	<rect class="st7" width="352" height="176"/>
</g>
</svg>
