<svg xmlns="http://www.w3.org/2000/svg" viewBox="0 0 24 24"><defs><style>.b51fa3b8-efb4-494a-a2f2-a65edc42f2b0{fill:none;}.fdadd080-824b-41c8-98a5-fb7551343baf{fill:#0377BD;}</style></defs><g id="a0e95e23-4e10-41cc-97a5-271b40e77189" data-name="Kit_4"><g id="a44360d7-b40b-470a-bdb2-04f2aa96a6fd" data-name="Double_chevron_right"><path class="b51fa3b8-efb4-494a-a2f2-a65edc42f2b0" d="M0,0H24V24H0Z"/><g id="b13b47f2-3799-4184-807d-f9b2a793a1ab" data-name="Contorneado"><path class="fdadd080-824b-41c8-98a5-fb7551343baf" d="M4.3,20.83h0a1,1,0,0,1,0-1.41L11.71,12,4.29,4.58a1,1,0,0,1,0-1.41h0a1,1,0,0,1,1.42,0l8.48,8.48a.51.51,0,0,1,0,.71L5.71,20.83A1,1,0,0,1,4.3,20.83Z"/><path class="fdadd080-824b-41c8-98a5-fb7551343baf" d="M10,20.83h0a1,1,0,0,1,0-1.41L17.38,12,10,4.58a1,1,0,0,1,0-1.41h0a1,1,0,0,1,1.41,0l8.48,8.48a.5.5,0,0,1,0,.71l-8.48,8.47A1,1,0,0,1,10,20.83Z"/></g></g></g></svg>