<?xml version="1.0" encoding="utf-8"?>
<!-- Generator: Adobe Illustrator 25.2.3, SVG Export Plug-In . SVG Version: 6.00 Build 0)  -->
<svg version="1.1" id="Capa_1" xmlns="http://www.w3.org/2000/svg" xmlns:xlink="http://www.w3.org/1999/xlink" x="0px" y="0px"
	 viewBox="0 0 352 176" style="enable-background:new 0 0 352 176;" xml:space="preserve">
<style type="text/css">
	.st0{opacity:0.4;}
	.st1{fill:#DDE6EB;}
	.st2{fill:#FFFFFF;}
	.st3{fill:#C6D5DE;}
	.st4{fill:#596C78;}
	.st5{fill:#F5F6F7;}
	.st6{fill:#697A85;}
	.st7{fill:none;}
	.st8{opacity:0.4;fill:#DDE6EB;enable-background:new    ;}
	.st9{fill:#AFC4D1;}
	.st10{fill:#FCFCFC;}
</style>
<g>
	<g id="_ES_Puerta_1_">
		<g id="Puerta_contorneada_1_">
			<path class="st8" d="M235.7,161.1c-4.1,0.8-14.6,2.7-19.6,2.9c-8.6,0.3-15.7,0.3-22.1,0.3c-8.9,0-17.3,0-22.8,0
				c-12.6,0-23.4,0-33.8,0c-22.9-0.1-40-3.7-55.9-8.2c-25.6-7.2-44.3-24.8-44.8-46.6c-0.1-6.2,1.5-13.3,4.8-21.4
				c19.7-47.7,46.2-76.4,138.4-76.4c1.2,0,2.3,0,3.5,0c1.5,0,3.1-0.1,4.6,0c0.5,0,1,0,1.5,0h0.2c0.9,0.1,1.7-0.1,2.6,0
				c0.8,0.1,1.4-0.1,2.2,0l0,0c7.2,0.6,16.3,0,22.9,1.3l3.6,0.5c4.1,0.8,8.2,1.8,12.1,2.8c1.1,0.3,2.2,0.6,3.3,0.9
				c0.2,0,0.3,0.1,0.5,0.1c0.2,0.1,0.3,0.1,0.5,0.1c0.9,0.3,1.8,0.5,2.6,0.8c0.5,0.2,1.1,0.3,1.6,0.5c47.3,15.5,73.7,50.8,73.7,85.6
				c0,26.7,1.5,27.8-20.2,40.1c-2.6,1.5-13.1,5.6-24.8,8.8C256.4,157.2,240.8,160.1,235.7,161.1z"/>
			<path class="st1" d="M205.3,160.5H146c-8.6,0-15.7-6.8-15.7-15.1V33.5c0-8.2,2.7-15,6.1-15.3c0.1,0,0.7-0.3,0.8-0.3h76.5
				c4,0,7.3,3.2,7.3,7.2c0,0,0,0,0,0l-0.1,120.1C220.9,153.7,213.9,160.5,205.3,160.5z"/>
			<path class="st9" d="M220.9,123.6v20.9v11.2c0,2.7-1.4,5.3-3.7,6.7l0,0c-0.1,0-0.1,0.1-0.2,0.1l0,0c-0.9,0.5-1.8,0.9-2.8,1
				l-0.2,0c-0.4,0.1-0.7,0.1-1.1,0.1h-76.1c-2.5,0-6.6-3.6-6.6-8v-24.1c0-4.4,3.6-8,8-8L220.9,123.6z"/>
			<path class="st3" d="M138.6,160.7l23.2-9.4c1.6-0.6,2.6-2.1,2.6-3.8V35.2c0-1.6-0.9-3.1-2.4-3.7L138.7,21c-2.1-0.9-4.5,0-5.4,2
				c-0.2,0.5-0.4,1.1-0.4,1.7V157c0,2.3,1.8,4.1,4.1,4.1C137.6,161,138.1,160.9,138.6,160.7z"/>
			<path class="st4" d="M137.1,163.7c-3.7,0-6.7-3-6.7-6.7V24.7c0-3.7,3-6.8,6.7-6.8c1,0,1.9,0.2,2.8,0.6l23.2,10.5
				c2.4,1.1,4,3.5,4,6.2v112.3c0,2.8-1.7,5.2-4.2,6.3l-23.2,9.4C138.8,163.5,137.9,163.7,137.1,163.7z M137.6,158.3l1,2.4
				L137.6,158.3l23.2-9.4c0.6-0.2,0.9-0.8,0.9-1.4V35.2c0-0.6-0.3-1.1-0.9-1.3l-23.2-10.5c-0.7-0.3-1.6,0-1.9,0.7
				c-0.1,0.2-0.1,0.4-0.1,0.6V157c0,0.8,0.7,1.5,1.5,1.5C137.2,158.4,137.4,158.4,137.6,158.3L137.6,158.3z"/>
			<path class="st10" d="M147.5,39.5v47c0,0.6-0.5,1.2-1.2,1.2c0,0,0,0,0,0l-6.3-0.2c-0.6,0-1.1-0.5-1.1-1.2V37.1
				c0-0.6,0.5-1.2,1.2-1.2c0.1,0,0.3,0,0.4,0.1l6.3,2.3C147.2,38.5,147.5,39,147.5,39.5z"/>
			<path class="st6" d="M141.2,38.8l4,1.5v45l-4-0.1V38.8 M140,35.9c-0.6,0-1.2,0.5-1.2,1.2v49.2c0,0.6,0.5,1.1,1.1,1.2l6.3,0.2h0
				c0.6,0,1.2-0.5,1.2-1.2v-47c0-0.5-0.3-0.9-0.8-1.1l-6.3-2.3C140.3,36,140.2,35.9,140,35.9L140,35.9z"/>
			<path class="st10" d="M158.5,43.5V87c0,0.6-0.5,1.2-1.2,1.2c0,0,0,0,0,0l-6.3-0.2c-0.6,0-1.1-0.5-1.1-1.2V41.1
				c0-0.6,0.5-1.2,1.2-1.2c0.1,0,0.3,0,0.4,0.1l6.3,2.3C158.2,42.5,158.5,43,158.5,43.5z"/>
			<path class="st6" d="M152.2,42.8l4,1.5v41.5l-4-0.2V42.8 M151,39.9c-0.6,0-1.2,0.5-1.2,1.2v45.7c0,0.6,0.5,1.1,1.1,1.2l6.3,0.2h0
				c0.6,0,1.2-0.5,1.2-1.2V43.5c0-0.5-0.3-0.9-0.8-1.1l-6.3-2.3C151.3,40,151.1,40,151,39.9L151,39.9z"/>
			<path class="st10" d="M147.5,147.5v-47c0-0.6-0.5-1.2-1.2-1.2c0,0,0,0,0,0l-6.3,0.2c-0.6,0-1.1,0.5-1.1,1.2v49.2
				c0,0.6,0.5,1.2,1.2,1.2c0.1,0,0.3,0,0.4-0.1l6.3-2.3C147.2,148.5,147.5,148,147.5,147.5z"/>
			<path class="st6" d="M145.2,101.7v45l-4,1.5v-46.3L145.2,101.7 M146.3,99.3L146.3,99.3l-6.4,0.2c-0.6,0-1.1,0.5-1.1,1.2v49.2
				c0,0.6,0.5,1.2,1.2,1.2c0.1,0,0.3,0,0.4-0.1l6.3-2.3c0.5-0.2,0.8-0.6,0.8-1.1v-47C147.5,99.9,147,99.3,146.3,99.3L146.3,99.3z"/>
			<path class="st10" d="M158.5,143.5V100c0-0.6-0.5-1.2-1.2-1.2c0,0,0,0,0,0l-6.3,0.2c-0.6,0-1.1,0.5-1.1,1.2v45.7
				c0,0.6,0.5,1.2,1.2,1.2c0.1,0,0.3,0,0.4-0.1l6.3-2.3C158.2,144.5,158.5,144,158.5,143.5z"/>
			<path class="st6" d="M156.1,101.2v41.5l-4,1.5v-42.8L156.1,101.2 M157.3,98.8L157.3,98.8l-6.4,0.2c-0.6,0-1.1,0.5-1.1,1.2v45.7
				c0,0.6,0.5,1.2,1.2,1.2c0.1,0,0.3,0,0.4-0.1l6.3-2.3c0.5-0.2,0.8-0.6,0.8-1.1V100C158.5,99.3,157.9,98.8,157.3,98.8L157.3,98.8z"
				/>
			<path class="st1" d="M162.9,95.2l-4-0.1c-0.9,0-1.6-0.7-1.6-1.6l0,0c0-0.8,0.6-1.5,1.5-1.6c0,0,0.1,0,0.1,0l4,0.1
				c0.9,0,1.6,0.7,1.6,1.6l0,0C164.5,94.4,163.8,95.2,162.9,95.2C162.9,95.2,162.9,95.2,162.9,95.2z"/>
			<path class="st2" d="M164.5,93.6c0,0.8-0.7,1.5-1.5,1.5c0,0-0.1,0-0.1,0c-0.9,0-1.6-0.8-1.6-1.7c0-0.8,0.7-1.5,1.5-1.5
				c0,0,0.1,0,0.1,0C163.8,92,164.4,92.7,164.5,93.6z"/>
			<path class="st2" d="M246.2,47.4c-0.9,0.8-2.3,0.1-3.3-0.7c-1-0.7-1.5-1.9-2-3c-0.3-0.8-0.5-1.7-0.4-2.5c0.1-0.9,0.7-1.7,1.5-1.9
				c0.8-0.2,1.8-0.1,2.5,0.4C247.6,41.8,247.6,46.3,246.2,47.4"/>
			<path class="st3" d="M245.3,48.4c-0.8,0-1.7-0.4-2.7-1.1c-1.2-0.9-1.8-2.2-2.1-3.3c-0.4-0.9-0.5-1.8-0.5-2.8c0,0,0,0,0,0
				c0.1-1.1,0.9-2.1,1.9-2.4c1-0.3,2.1-0.1,3,0.5c1.7,1.2,2.7,3,2.8,5.1c0.1,1.5-0.3,2.7-1,3.4c0,0-0.1,0.1-0.1,0.1
				C246.2,48.2,245.8,48.4,245.3,48.4z M241.2,41.3c-0.1,0.8,0.1,1.5,0.4,2.2v0c0.3,0.9,0.8,2.1,1.8,2.7c0.6,0.5,1.8,1.2,2.5,0.7
				l0.1-0.1c0.4-0.3,0.7-1.3,0.7-2.6c-0.1-0.8-0.4-2.9-2.3-4.2c0,0,0,0,0,0c-0.6-0.4-1.3-0.5-1.9-0.3
				C241.7,40.1,241.2,40.7,241.2,41.3L241.2,41.3z"/>
			<path class="st3" d="M247.5,55.1c-0.3,0-0.6-0.3-0.6-0.6c-0.1-6.4-3.4-10.4-3.5-10.4c-0.2-0.2-0.2-0.6,0.1-0.8s0.6-0.2,0.8,0.1
				l0,0c0.1,0.2,3.7,4.4,3.7,11.2C248.1,54.8,247.8,55,247.5,55.1L247.5,55.1z"/>
			<polygon class="st2" points="250.9,64.9 243.2,64.9 242,54.5 252.1,54.5 			"/>
			<path class="st1" d="M250.9,65.4h-7.6c-0.3,0-0.6-0.2-0.6-0.5l-1.2-10.3c0-0.2,0-0.3,0.1-0.5c0.1-0.1,0.3-0.2,0.4-0.2h10.1
				c0.2,0,0.3,0.1,0.4,0.2c0.1,0.1,0.2,0.3,0.1,0.5l-1.3,10.3C251.4,65.2,251.2,65.4,250.9,65.4z M243.8,64.3h6.6l1.1-9.2h-8.8
				L243.8,64.3z"/>
			<polygon class="st3" points="251.2,57.2 242.9,57.2 243.2,59.8 250.9,59.8 			"/>
			<path class="st3" d="M237.1,72.4c-0.6,0-1.2-0.5-1.2-1.2v-2.5c0-0.6,0.5-1.2,1.2-1.2c0.6,0,1.2,0.5,1.2,1.2v2.5
				C238.3,71.8,237.8,72.4,237.1,72.4z"/>
			<path class="st3" d="M257,72.4c-0.6,0-1.2-0.5-1.2-1.2v-2.5c0-0.6,0.5-1.2,1.2-1.2c0.6,0,1.2,0.5,1.2,1.2v2.5
				C258.2,71.8,257.7,72.4,257,72.4z"/>
			<path class="st2" d="M233.6,65.7H260c0.5,0,0.8,0.6,0.8,1.3l0,0c0,0.7-0.4,1.3-0.8,1.3h-26.4c-0.5,0-0.8-0.6-0.8-1.3l0,0
				C232.8,66.3,233.2,65.7,233.6,65.7z"/>
			<path class="st3" d="M260,69h-26.4c-0.8,0-1.4-0.8-1.4-1.9s0.6-1.9,1.4-1.9H260c0.8,0,1.4,0.8,1.4,1.9S260.8,69,260,69z
				 M233.6,66.3c-0.2,0.2-0.3,0.5-0.3,0.7c0,0.3,0.1,0.6,0.3,0.7H260c0.2-0.2,0.3-0.5,0.3-0.7c0-0.3-0.1-0.6-0.3-0.7H233.6z"/>
			<g id="freepik--Switches--inject-2_2_">
				<path class="st3" d="M116.9,102.2h-11.6c-0.5,0-0.9-0.5-0.9-1.1V82.6c0-0.6,0.4-1.1,0.9-1.1h11.6c0.5,0,0.9,0.5,0.9,1.1V101
					C117.8,101.7,117.4,102.2,116.9,102.2z M105.5,101h11.1V82.7h-11.1V101z"/>
				<path class="st3" d="M108.9,87.3h4.3c0.2,0,0.4,0.2,0.4,0.4v8.1c0,0.2-0.2,0.4-0.4,0.4h-4.3c-0.2,0-0.4-0.2-0.4-0.4v-8.1
					C108.5,87.5,108.6,87.3,108.9,87.3z"/>
				<path class="st1" d="M113,95.7h-4c-0.3,0-0.5-0.2-0.5-0.5l0,0v-3.4h5.1v3.4C113.6,95.5,113.3,95.7,113,95.7z"/>
			</g>
			<path class="st3" d="M220.9,147.3c0,0.2,0,0.3,0,0.5v7.9c0,2.7-1.4,5.3-3.7,6.7l0,0c-0.1,0-0.1,0.1-0.2,0.1l0,0
				c-0.9,0.5-1.8,0.9-2.8,1l-0.2,0c-0.4,0.1-0.7,0.1-1.1,0.1h-21.3c6.6,0,15.5-5.6,15.5-20.5v-19.7h13.7L220.9,147.3z"/>
		</g>
	</g>
	<rect class="st7" width="352" height="176"/>
</g>
</svg>
