<?xml version="1.0" encoding="utf-8"?>
<!-- Generator: Adobe Illustrator 25.2.3, SVG Export Plug-In . SVG Version: 6.00 Build 0)  -->
<svg version="1.1" id="Plus_x5F_24px" xmlns="http://www.w3.org/2000/svg" xmlns:xlink="http://www.w3.org/1999/xlink" x="0px"
	 y="0px" viewBox="0 0 24 24" style="enable-background:new 0 0 24 24;" xml:space="preserve">
<style type="text/css">
	.st0{fill:none;}
	.st1{fill:#0377BD;}
</style>
<path class="st0" d="M0,0h24v24H0V0z"/>
<path class="st1" d="M20.9,12L20.9,12c0,0.6-0.4,1-1,1H13v6.9c0,0.6-0.4,1-1,1l0,0c-0.6,0-1-0.4-1-1V13H4.1c-0.6,0-1-0.4-1-1l0,0
	c0-0.6,0.4-1,1-1H11V4.1c0-0.6,0.4-1,1-1l0,0c0.6,0,1,0.4,1,1V11h6.9C20.5,11,20.9,11.4,20.9,12z"/>
</svg>
