<?xml version="1.0" encoding="utf-8"?>
<!-- Generator: Adobe Illustrator 25.2.1, SVG Export Plug-In . SVG Version: 6.00 Build 0)  -->
<svg version="1.1" xmlns="http://www.w3.org/2000/svg" xmlns:xlink="http://www.w3.org/1999/xlink" x="0px" y="0px"
	 viewBox="0 0 24 24" style="enable-background:new 0 0 24 24;" xml:space="preserve">
<style type="text/css">
	.st0{fill:none;}
	.st1{clip-path:url(#SVGID_2_);}
	.st2{fill:none;stroke:#000000;stroke-width:0.25;stroke-miterlimit:10;}
	.st3{opacity:0.4;}
	.st4{clip-path:url(#SVGID_3_);fill:none;stroke:#000000;stroke-width:0.25;stroke-miterlimit:10;}
	.st5{clip-path:url(#SVGID_3_);}
	.st6{opacity:0.2;}
	.st7{opacity:0.2;fill:#44FF1D;}
	.st8{fill:#0377BD;}
	.st9{fill:none;stroke:#0377BD;stroke-width:2.025;stroke-linecap:round;stroke-miterlimit:10;}
	.st10{display:none;fill:#555555;}
	.st11{fill:#FFFFFF;}
	.st12{display:none;fill:none;stroke:#260BAF;stroke-width:2.03;stroke-linecap:round;stroke-miterlimit:10;}
	.st13{fill:none;stroke:#0377BD;stroke-width:2;stroke-miterlimit:10;}
	.st14{fill:none;stroke:#0377BD;stroke-width:2;stroke-linecap:round;stroke-miterlimit:10;}
	.st15{display:none;}
	.st16{display:inline;opacity:0.2;}
	.st17{display:inline;}
	.st18{fill:#2C4352;}
	.st19{display:inline;fill:#2C4352;}
	.st20{opacity:0.2;fill:#AEAEAE;}
	.st21{display:inline;fill:none;}
	.st22{display:inline;fill:#0377BD;}
	.st23{opacity:0.2;fill:#00FF18;}
	.st24{fill:none;stroke:#0377BD;stroke-width:1.5;stroke-miterlimit:10;}
	.st25{fill:none;stroke:#0377BD;stroke-width:1.7;stroke-linecap:round;stroke-miterlimit:10;}
	.st26{display:inline;fill:#555555;}
	.st27{display:inline;fill:none;stroke:#2C4352;stroke-width:2;stroke-miterlimit:10;}
	.st28{fill:none;stroke:#2C4352;stroke-width:2;stroke-miterlimit:10;}
	.st29{opacity:0.15;}
	.st30{clip-path:url(#SVGID_4_);}
	.st31{clip-path:url(#SVGID_6_);fill:none;stroke:#000000;stroke-width:0.25;stroke-miterlimit:10;}
	.st32{clip-path:url(#SVGID_6_);}
	.st33{clip-path:url(#SVGID_7_);}
	.st34{clip-path:url(#SVGID_8_);fill:none;stroke:#000000;stroke-width:0.25;stroke-miterlimit:10;}
	.st35{clip-path:url(#SVGID_8_);}
	.st36{clip-path:url(#SVGID_9_);}
	.st37{clip-path:url(#SVGID_10_);fill:none;stroke:#000000;stroke-width:0.25;stroke-miterlimit:10;}
	.st38{clip-path:url(#SVGID_10_);}
	.st39{clip-path:url(#SVGID_11_);}
	.st40{clip-path:url(#SVGID_12_);fill:none;stroke:#000000;stroke-width:0.25;stroke-miterlimit:10;}
	.st41{clip-path:url(#SVGID_12_);}
	.st42{fill:none;stroke:#0377BD;stroke-width:2;stroke-linecap:round;stroke-linejoin:round;}
	.st43{clip-path:url(#SVGID_13_);}
	.st44{clip-path:url(#SVGID_14_);fill:none;stroke:#000000;stroke-width:0.25;stroke-miterlimit:10;}
	.st45{clip-path:url(#SVGID_14_);}
	.st46{fill:none;stroke:#0377BD;stroke-width:2.03;stroke-linecap:round;stroke-miterlimit:10;}
	.st47{clip-path:url(#SVGID_15_);}
	.st48{clip-path:url(#SVGID_16_);fill:none;stroke:#000000;stroke-width:0.25;stroke-miterlimit:10;}
	.st49{clip-path:url(#SVGID_16_);}
	.st50{clip-path:url(#SVGID_17_);}
	.st51{clip-path:url(#SVGID_18_);fill:none;stroke:#000000;stroke-width:0.25;stroke-miterlimit:10;}
	.st52{clip-path:url(#SVGID_18_);}
	.st53{clip-path:url(#SVGID_19_);}
	.st54{clip-path:url(#SVGID_20_);fill:none;stroke:#000000;stroke-width:0.25;stroke-miterlimit:10;}
	.st55{clip-path:url(#SVGID_20_);}
	.st56{clip-path:url(#SVGID_21_);}
	.st57{clip-path:url(#SVGID_22_);fill:none;stroke:#000000;stroke-width:0.25;stroke-miterlimit:10;}
	.st58{clip-path:url(#SVGID_22_);}
	.st59{clip-path:url(#SVGID_23_);}
	.st60{clip-path:url(#SVGID_24_);fill:none;stroke:#000000;stroke-width:0.25;stroke-miterlimit:10;}
	.st61{clip-path:url(#SVGID_24_);}
	.st62{fill:none;stroke:#0377BD;stroke-width:2;stroke-linejoin:round;stroke-miterlimit:10;}
	.st63{fill:none;stroke:#0377BD;stroke-width:2;stroke-linecap:round;stroke-linejoin:round;stroke-miterlimit:10;}
	.st64{clip-path:url(#SVGID_25_);}
	.st65{clip-path:url(#SVGID_26_);fill:none;stroke:#000000;stroke-width:0.25;stroke-miterlimit:10;}
	.st66{clip-path:url(#SVGID_26_);}
	.st67{clip-path:url(#SVGID_27_);}
	.st68{clip-path:url(#SVGID_28_);fill:none;stroke:#000000;stroke-width:0.25;stroke-miterlimit:10;}
	.st69{clip-path:url(#SVGID_28_);}
	.st70{clip-path:url(#SVGID_29_);}
	.st71{clip-path:url(#SVGID_30_);fill:none;stroke:#000000;stroke-width:0.25;stroke-miterlimit:10;}
	.st72{clip-path:url(#SVGID_30_);}
	.st73{clip-path:url(#SVGID_31_);}
	.st74{clip-path:url(#SVGID_32_);fill:none;stroke:#000000;stroke-width:0.25;stroke-miterlimit:10;}
	.st75{clip-path:url(#SVGID_32_);}
	.st76{clip-path:url(#SVGID_33_);}
	.st77{clip-path:url(#SVGID_34_);fill:none;stroke:#000000;stroke-width:0.25;stroke-miterlimit:10;}
	.st78{clip-path:url(#SVGID_34_);}
	.st79{clip-path:url(#SVGID_35_);}
	.st80{clip-path:url(#SVGID_36_);fill:none;stroke:#000000;stroke-width:0.25;stroke-miterlimit:10;}
	.st81{clip-path:url(#SVGID_36_);}
	.st82{fill:none;stroke:#0377BD;stroke-width:2;stroke-linecap:round;}
	.st83{display:inline;fill:none;stroke:#000000;stroke-width:2;stroke-linecap:round;}
	.st84{display:inline;fill:none;stroke:#25E6F4;stroke-width:2;stroke-miterlimit:10;}
	.st85{display:inline;fill:#25E6F4;}
	.st86{clip-path:url(#SVGID_37_);}
	.st87{clip-path:url(#SVGID_38_);fill:none;stroke:#000000;stroke-width:0.25;stroke-miterlimit:10;}
	.st88{clip-path:url(#SVGID_38_);}
	.st89{clip-path:url(#SVGID_39_);}
	.st90{clip-path:url(#SVGID_40_);fill:none;stroke:#000000;stroke-width:0.25;stroke-miterlimit:10;}
	.st91{clip-path:url(#SVGID_40_);}
</style>
<symbol  id="material_x5F_system_x5F_icon_x5F_border" viewBox="0 -48 48 48">
	<rect y="-48" class="st0" width="48" height="48"/>
</symbol>
<symbol  id="material_x5F_system_x5F_icon_x5F_grid" viewBox="0 -48 48 48">
	<g>
		<defs>
			<rect id="SVGID_2_" x="0" y="-48" width="48" height="48"/>
		</defs>
		<clipPath id="SVGID_3_">
			<use xlink:href="#SVGID_2_"  style="overflow:visible;"/>
		</clipPath>
		<g class="st5">
			<g>
				<line class="st2" x1="2" y1="-48" x2="2" y2="0"/>
				<line class="st2" x1="4" y1="-48" x2="4" y2="0"/>
				<line class="st2" x1="6" y1="-48" x2="6" y2="0"/>
				<line class="st2" x1="8" y1="-48" x2="8" y2="0"/>
				<line class="st2" x1="10" y1="-48" x2="10" y2="0"/>
				<line class="st2" x1="12" y1="-48" x2="12" y2="0"/>
				<line class="st2" x1="14" y1="-48" x2="14" y2="0"/>
				<line class="st2" x1="16" y1="-48" x2="16" y2="0"/>
				<line class="st2" x1="18" y1="-48" x2="18" y2="0"/>
				<line class="st2" x1="20" y1="-48" x2="20" y2="0"/>
				<line class="st2" x1="22" y1="-48" x2="22" y2="0"/>
				<line class="st2" x1="24" y1="-48" x2="24" y2="0"/>
				<line class="st2" x1="26" y1="-48" x2="26" y2="0"/>
				<line class="st2" x1="28" y1="-48" x2="28" y2="0"/>
				<line class="st2" x1="30" y1="-48" x2="30" y2="0"/>
				<line class="st2" x1="32" y1="-48" x2="32" y2="0"/>
				<line class="st2" x1="34" y1="-48" x2="34" y2="0"/>
				<line class="st2" x1="36" y1="-48" x2="36" y2="0"/>
				<line class="st2" x1="38" y1="-48" x2="38" y2="0"/>
				<line class="st2" x1="40" y1="-48" x2="40" y2="0"/>
				<line class="st2" x1="42" y1="-48" x2="42" y2="0"/>
				<line class="st2" x1="44" y1="-48" x2="44" y2="0"/>
				<line class="st2" x1="46" y1="-48" x2="46" y2="0"/>
			</g>
			<g>
				<line class="st2" x1="0" y1="-2" x2="48" y2="-2"/>
				<line class="st2" x1="0" y1="-4" x2="48" y2="-4"/>
				<line class="st2" x1="0" y1="-6" x2="48" y2="-6"/>
				<line class="st2" x1="0" y1="-8" x2="48" y2="-8"/>
				<line class="st2" x1="0" y1="-10" x2="48" y2="-10"/>
				<line class="st2" x1="0" y1="-12" x2="48" y2="-12"/>
				<line class="st2" x1="0" y1="-14" x2="48" y2="-14"/>
				<line class="st2" x1="0" y1="-16" x2="48" y2="-16"/>
				<line class="st2" x1="0" y1="-18" x2="48" y2="-18"/>
				<line class="st2" x1="0" y1="-20" x2="48" y2="-20"/>
				<line class="st2" x1="0" y1="-22" x2="48" y2="-22"/>
				<line class="st2" x1="0" y1="-24" x2="48" y2="-24"/>
				<line class="st2" x1="0" y1="-26" x2="48" y2="-26"/>
				<line class="st2" x1="0" y1="-28" x2="48" y2="-28"/>
				<line class="st2" x1="0" y1="-30" x2="48" y2="-30"/>
				<line class="st2" x1="0" y1="-32" x2="48" y2="-32"/>
				<line class="st2" x1="0" y1="-34" x2="48" y2="-34"/>
				<line class="st2" x1="0" y1="-36" x2="48" y2="-36"/>
				<line class="st2" x1="0" y1="-38" x2="48" y2="-38"/>
				<line class="st2" x1="0" y1="-40" x2="48" y2="-40"/>
				<line class="st2" x1="0" y1="-42" x2="48" y2="-42"/>
				<line class="st2" x1="0" y1="-44" x2="48" y2="-44"/>
				<line class="st2" x1="0" y1="-46" x2="48" y2="-46"/>
			</g>
			<g>
				<path d="M47.75-0.25v-47.5H0.25v47.5H47.75 M48,0H0v-48h48V0L48,0z"/>
			</g>
		</g>
	</g>
</symbol>
<symbol  id="material_x5F_system_x5F_icon_x5F_keylines" viewBox="0 -48 48 48">
	<g class="st3">
		<defs>
			<rect id="SVGID_4_" x="0" y="-48" class="st3" width="48" height="48"/>
		</defs>
		<clipPath id="SVGID_6_">
			<use xlink:href="#SVGID_4_"  style="overflow:visible;"/>
		</clipPath>
		<line class="st31" x1="24" y1="0" x2="24" y2="-48"/>
		<line class="st31" x1="48" y1="-24" x2="0" y2="-24"/>
		<line class="st31" x1="48" y1="-16" x2="0" y2="-16"/>
		<line class="st31" x1="48" y1="-32" x2="0" y2="-32"/>
		<line class="st31" x1="32" y1="-48" x2="32" y2="0"/>
		<line class="st31" x1="16" y1="-48" x2="16" y2="0"/>
		<line class="st31" x1="47.75" y1="-0.25" x2="0.25" y2="-47.75"/>
		<line class="st31" x1="0.25" y1="-0.25" x2="47.75" y2="-47.75"/>
		<path class="st31" d="M24-14c-5.52,0-10-4.48-10-10c0-5.52,4.48-10,10-10c5.52,0,10,4.48,10,10C34-18.48,29.52-14,24-14z"/>
		<path class="st31" d="M24-4C12.95-4,4-12.95,4-24c0-11.05,8.95-20,20-20c11.05,0,20,8.95,20,20C44-12.95,35.05-4,24-4z"/>
		<path class="st31" d="M38-6H10c-2.21,0-4-1.79-4-4v-28c0-2.21,1.79-4,4-4h28c2.21,0,4,1.79,4,4v28C42-7.79,40.21-6,38-6z"/>
		<path class="st31" d="M40-8H8c-2.21,0-4-1.79-4-4v-24c0-2.21,1.79-4,4-4h32c2.21,0,4,1.79,4,4l0,24C44-9.79,42.21-8,40-8z"/>
		<path class="st31" d="M40-40v32c0,2.21-1.79,4-4,4H12C9.79-4,8-5.79,8-8v-32c0-2.21,1.79-4,4-4h24C38.21-44,40-42.21,40-40z"/>
		<g class="st32">
			<path d="M47.75-0.25v-47.5H0.25v47.5H47.75 M48,0H0v-48h48V0L48,0z"/>
		</g>
	</g>
</symbol>
<g id="Check_x5F_circle_x5F_24px">
</g>
<g id="Error_x5F_24px">
</g>
<g id="Warning_x5F_24px">
</g>
<g id="Info_x5F_24px">
</g>
<g id="Chevron_x5F_right_x5F_24px">
</g>
<g id="Chevron_x5F_left_x5F_24px">
</g>
<g id="Chevron_x5F_down_x5F_24px">
</g>
<g id="Chevron_x5F_up_x5F_24px">
</g>
<g id="Close_x5F_24px">
</g>
<g id="Sheet_x5F_documentation_x5F_health_x5F_24px">
</g>
<g id="Person_x5F_24px">
</g>
<g id="Business_x5F_24px">
</g>
<g id="Help_x5F_24px">
</g>
<g id="Exit_x5F_to_x5F_app_x5F_24px">
</g>
<g id="Settings_x5F_adjust_x5F_24px">
	<g id="Contorneado_44_">
		<g id="Contorneado_47_">
			<g id="Contorneado_49_">
				<g id="Contorneado_50_">
					<g id="Grid_x5F_Business_x5F_icon_7_" class="st15">
						<rect x="0" y="0" class="st21" width="24" height="24"/>
						<g class="st17">
							<circle id="circle_27_" class="st6" cx="12" cy="12" r="10"/>
							<path id="Rectangle_26_" class="st6" d="M19,21H5c-1.1,0-2-0.9-2-2V5c0-1.1,0.9-2,2-2h14c1.1,0,2,0.9,2,2v14
								C21,20.1,20.1,21,19,21z"/>
							<path id="Vertical_Rectangle_26_" class="st6" d="M6,22h12c1.1,0,2-0.9,2-2V4c0-1.1-0.9-2-2-2H6c-1.1,0-2,0.9-2,2v16
								C4,21.1,4.89,22,6,22z"/>
							<path id="Horizontal_Rectangle_26_" class="st23" d="M22,18V6c0-1.1-0.9-2-2-2H4c-1.1,0-2,0.9-2,2v12c0,1.1,0.9,2,2,2h16
								C21.1,20,22,19.1,22,18z"/>
							
								<use xlink:href="#material_x5F_system_x5F_icon_x5F_border"  width="48" height="48" id="XMLID_78_" y="-48" transform="matrix(0.5 0 0 -0.5 -2.532441e-03 -4.131286e-04)" style="overflow:visible;"/>
							
								<use xlink:href="#material_x5F_system_x5F_icon_x5F_grid"  width="48" height="48" id="XMLID_77_" x="0" y="-48" transform="matrix(0.5 0 0 -0.5 -2.532441e-03 -4.131286e-04)" style="overflow:visible;opacity:0.15;"/>
							
								<use xlink:href="#material_x5F_system_x5F_icon_x5F_keylines"  width="48" height="48" id="XMLID_76_" x="0" y="-48" transform="matrix(0.5 0 0 -0.5 -2.532441e-03 -4.131286e-04)" style="overflow:visible;"/>
						</g>
					</g>
				</g>
			</g>
			<g id="Contorneado_48_">
				<g id="Sin_contornear_8_" class="st15">
					<polyline class="st27" points="18.76,8.82 18.76,3.43 5.24,3.43 5.24,20.87 18.76,20.87 18.76,14.48 					"/>
					<g class="st17">
						<line class="st28" x1="7.45" y1="12.14" x2="15.63" y2="12.14"/>
						<polyline class="st28" points="12.88,8.05 16.98,12.14 12.88,16.22 						"/>
					</g>
				</g>
			</g>
		</g>
		<g id="Contorneado_45_">
			<rect x="0" y="0.05" class="st0" width="24" height="24"/>
			<g id="Contorneado_46_">
				<g>
					<path class="st8" d="M20.81,4.64h-9.16c-0.43-1.47-1.79-2.55-3.4-2.55c-1.61,0-2.97,1.08-3.4,2.55H3.07c-0.55,0-1,0.44-1,1
						c0,0.55,0.45,1,1,1h1.79c0.43,1.47,1.78,2.54,3.39,2.54c1.61,0,2.96-1.07,3.39-2.54h9.17c0.55,0,1-0.45,1-1
						C21.81,5.08,21.36,4.64,20.81,4.64z M8.25,7.18c-0.85,0-1.54-0.69-1.54-1.54c0-0.86,0.69-1.55,1.54-1.55
						c0.85,0,1.54,0.69,1.54,1.55C9.79,6.49,9.1,7.18,8.25,7.18z"/>
				</g>
				<g>
					<path class="st8" d="M20.81,11.05h-1.25c-0.43-1.47-1.78-2.54-3.39-2.54c-1.61,0-2.96,1.07-3.39,2.54H3.07c-0.55,0-1,0.45-1,1
						c0,0.56,0.45,1,1,1h9.7c0.43,1.47,1.79,2.55,3.4,2.55c1.61,0,2.97-1.08,3.4-2.55h1.24c0.55,0,1-0.44,1-1
						C21.81,11.5,21.36,11.05,20.81,11.05z M16.17,13.6c-0.85,0-1.54-0.69-1.54-1.55c0-0.85,0.69-1.54,1.54-1.54
						c0.85,0,1.54,0.69,1.54,1.54C17.71,12.91,17.02,13.6,16.17,13.6z"/>
				</g>
				<g>
					<path class="st8" d="M20.81,17.47h-9.17c-0.43-1.47-1.78-2.54-3.39-2.54c-1.61,0-2.96,1.07-3.39,2.54H3.07c-0.55,0-1,0.45-1,1
						c0,0.56,0.45,1,1,1h1.78c0.43,1.47,1.79,2.55,3.4,2.55c1.61,0,2.97-1.08,3.4-2.55h9.16c0.55,0,1-0.44,1-1
						C21.81,17.92,21.36,17.47,20.81,17.47z M8.25,20.02c-0.85,0-1.54-0.7-1.54-1.55c0-0.85,0.69-1.54,1.54-1.54
						c0.85,0,1.54,0.69,1.54,1.54C9.79,19.32,9.1,20.02,8.25,20.02z"/>
				</g>
			</g>
		</g>
	</g>
</g>
<g id="Refresh_x5F_24px">
</g>
<g id="Search_x5F_24px">
</g>
<g id="Sheet_x5F_documentation_x5F_review_x5F_24px">
</g>
<g id="Delete_x5F_24px">
</g>
<g id="Sheet_x5F_documentation_x5F_check_x5F_24px">
</g>
<g id="Edit_x5F_24px">
</g>
<g id="Home_x5F_24px">
</g>
<g id="Add_x5F_24px">
</g>
<g id="Meatballs_x5F_menu_x5F_24px">
</g>
<g id="Calendar_x5F_24px">
</g>
<g id="Upload_x5F_24px">
</g>
<g id="Double_x5F_chevron_x5F_right_x5F_24px">
</g>
<g id="Double_x5F_chevron_x5F_left_x5F_24px">
</g>
<g id="Arrow_x5F_back_x5F_24px">
</g>
<g id="Arrow_x5F_forward_x5F_24_x5F_px">
</g>
<g id="Print_x5F_24px">
</g>
<g id="Visibility_x5F_24px">
</g>
<g id="Download_x5F_24px">
</g>
<g id="Comments_x5F_24px">
	<g id="Comments_x5F_24px_1_">
	</g>
</g>
</svg>
