<svg xmlns="http://www.w3.org/2000/svg" width="156" height="36.424" viewBox="0 0 156 36.424"><defs><style>.a{fill:#6d6e71;}.b{fill:#f7941e;}</style></defs><g transform="translate(-624.64 -736)"><path class="a" d="M636.608,767.982c-6.037,0-11.968-3.644-11.968-13.738,0-9.99,5.931-13.634,11.968-13.634a11.023,11.023,0,0,1,8.846,3.747L641.81,747.9c-1.664-1.873-3.017-2.5-5.1-2.5a5.981,5.981,0,0,0-4.995,2.394c-1.145,1.458-1.561,3.331-1.561,6.453s.415,5.1,1.561,6.557a5.981,5.981,0,0,0,4.995,2.394c2.083,0,3.436-.73,5.1-2.5l3.644,3.539a11.163,11.163,0,0,1-8.846,3.747" transform="translate(0 4.339)"/><path class="a" d="M655.476,764.808a11.841,11.841,0,0,1-16.027,0c-2.5-2.6-3.121-6.035-3.121-10.51s.623-7.909,3.121-10.512a11.847,11.847,0,0,1,16.027,0c2.5,2.6,3.122,6.037,3.122,10.512.1,4.475-.625,7.806-3.122,10.51m-4.059-17.9a5.408,5.408,0,0,0-3.954-1.563,5.018,5.018,0,0,0-3.852,1.563c-1.666,1.664-1.873,4.475-1.873,7.284s.208,5.725,1.873,7.388a5.174,5.174,0,0,0,3.852,1.563,5.864,5.864,0,0,0,3.954-1.563c1.666-1.664,1.873-4.475,1.873-7.388s-.208-5.62-1.873-7.284" transform="translate(11.001 4.39)"/><path class="a" d="M666.176,767.669V751.434c0-4.164-2.393-5.932-5.412-5.932s-5.515,1.873-5.515,5.932v16.338h-5.412v-26.85h5.307v2.706a9.765,9.765,0,0,1,7.078-3.019A9.523,9.523,0,0,1,668.777,743c2.081,1.978,2.706,4.579,2.706,7.6v17.068Z" transform="translate(23.716 4.339)"/><path class="a" d="M692.939,767.517l-5.62-9.054-5.62,9.054h-6.452l9.158-13.633-8.846-13.113h6.556l5.2,8.742,5.2-8.742h6.556l-8.742,13.113,9.054,13.633Z" transform="translate(47.634 4.491)"/><rect class="a" width="5.412" height="5.412" transform="translate(750.356 736)"/><rect class="a" width="5.412" height="26.746" transform="translate(750.356 745.262)"/><path class="b" d="M680.094,760.75c-1.456,1.873-2.914,2.6-5.828,2.6-4.162,0-5.828-1.666-5.828-4.995v-1.873h7.078a11.528,11.528,0,0,0,4.475-.73,7.058,7.058,0,0,0,4.787-6.971v-.522a7.876,7.876,0,0,0-2.081-5.2c-1.666-1.666-3.852-2.393-7.181-2.393h-1.353a12.034,12.034,0,0,0-5.828,1.458,8.628,8.628,0,0,0-2.083,1.664c-2.5,2.6-3.122,6.037-3.122,10.512v4.579c0,6.035,3.747,9.157,11.032,9.157h.208c4.267,0,6.868-.936,9.366-3.849l-.625-.52Zm-.208-11.865v.52c-.208,2.081-2.289,3.331-5.2,3.331h-6.245v-2.186a5.788,5.788,0,0,1,1.145-3.954c1.456-1.353,2.914-1.561,4.995-1.561,4.164.1,5.307,1.456,5.307,3.849" transform="translate(36.23 4.39)"/><path class="b" d="M698.533,747.841c1.456-1.873,2.914-2.6,5.828-2.6,4.162,0,5.828,1.666,5.828,4.995v1.873h-7.076a13.854,13.854,0,0,0-4.477.73,7.058,7.058,0,0,0-4.787,6.971v.522a7.876,7.876,0,0,0,2.081,5.2c1.666,1.666,3.852,2.394,7.181,2.394h1.353a12.049,12.049,0,0,0,5.83-1.458,8.655,8.655,0,0,0,2.081-1.664c2.5-2.6,3.122-6.037,3.122-10.512v-4.58c0-6.035-3.642-9.157-11.032-9.157h-.208c-4.267,0-6.868.936-9.367,3.849l.52.52Zm.208,11.968v-.52c.208-2.081,2.289-3.329,5.2-3.329h6.245v2.186a5.787,5.787,0,0,1-1.145,3.954c-1.456,1.353-2.914,1.561-4.995,1.561-4.267-.1-5.307-1.561-5.307-3.851" transform="translate(65.144 4.289)"/></g></svg>