<svg xmlns="http://www.w3.org/2000/svg" width="24" height="24" viewBox="0 0 24 24"><defs><style>.a{fill:none;}.b{fill:#006374;}</style></defs><path class="a" d="M0,0H24V24H0Z"/><path class="b" d="M12,2A10,10,0,1,0,22,12,10,10,0,0,0,12,2Zm0,18a8,8,0,1,1,8-8A8,8,0,0,1,12,20Z"/><path class="b" d="M12,6.81h0a1.22,1.22,0,1,0,0,2.44h0a1.22,1.22,0,1,0,0-2.44Z"/><path class="b" d="M15,16.17a1,1,0,0,1-1,1H10.44a1,1,0,0,1,0-2h.81V12.31h-.81a1,1,0,0,1,0-2h1.81a1,1,0,0,1,1,1v3.86H14A1,1,0,0,1,15,16.17Z"/></svg>