<svg xmlns="http://www.w3.org/2000/svg" width="24" height="24" viewBox="0 0 24 24"><defs><style>.a{fill:none;}.b{fill:#555;}</style></defs><rect class="a" width="24" height="24"/><path class="b" d="M18.7,7.23,14.19,2.85A3,3,0,0,0,12.1,2H7.32a3,3,0,0,0-3,3v5.7a1,1,0,0,0,1,1h0a1,1,0,0,0,1-1V5a1,1,0,0,1,1-1h4.57V8a1.51,1.51,0,0,0,1.5,1.5h4.22V19a1,1,0,0,1-1,1H7.32a1,1,0,0,1-1-1v-.8a1,1,0,0,0-1-1h0a1,1,0,0,0-1,1V19a3,3,0,0,0,3,3h9.29a3,3,0,0,0,3-3V9.38a3,3,0,0,0-.91-2.15Zm-4.81.3V5.35l2.25,2.18Z"/><path class="b" d="M9.31,17.47A1.05,1.05,0,0,1,8.42,17L7.31,15.19H5.07a.74.74,0,0,1-.75-.75h0a.75.75,0,0,1,.75-.75H7.56a1,1,0,0,1,.89.5l.75,1.19,1-2.92a1.07,1.07,0,0,1,.87-.7,1,1,0,0,1,1,.47L13,13.71h1.55a.76.76,0,0,1,.75.75h0a.76.76,0,0,1-.75.75h-1.8a1,1,0,0,1-.88-.48l-.58-.9-1,2.93a1,1,0,0,1-.88.7ZM13.15,13.92Z"/></svg>