<svg xmlns="http://www.w3.org/2000/svg" viewBox="0 0 24 24"><defs><style>.a85ee722-d9d1-41ec-9bfa-269845bbf416{fill:none;}.ec837a78-20e9-44c3-9359-2bc4c4a64a85{fill:#0377BD;}</style></defs><g id="e0eaa876-258b-433f-92fc-d27d550864ca" data-name="Kit_4"><g id="ac9a3c6f-22d5-49a2-a37b-6cc848e35787" data-name="Visibility_icon"><rect class="a85ee722-d9d1-41ec-9bfa-269845bbf416" x="0.01" width="24" height="24"/><g id="e260d318-40d0-4350-9572-e400822f5040" data-name="Contorneado"><path class="ec837a78-20e9-44c3-9359-2bc4c4a64a85" d="M12,18.88A10.68,10.68,0,0,1,3.08,14c-.11-.17-.38-.66-.62-1.12a2,2,0,0,1,0-1.88c.24-.46.51-.95.63-1.12a10.6,10.6,0,0,1,17.84,0c.12.17.39.67.63,1.13a2,2,0,0,1,0,1.87c-.24.47-.51,1-.63,1.14A10.67,10.67,0,0,1,12,18.88ZM4.18,11.94h0A8.84,8.84,0,0,0,12,16.88a8.84,8.84,0,0,0,7.83-4.94h0A8.84,8.84,0,0,0,12,7a8.84,8.84,0,0,0-7.83,4.94Z"/><path class="ec837a78-20e9-44c3-9359-2bc4c4a64a85" d="M12,16.14A4.14,4.14,0,1,1,16.15,12,4.14,4.14,0,0,1,12,16.14Zm0-6.27A2.14,2.14,0,1,0,14.15,12,2.14,2.14,0,0,0,12,9.87Z"/></g></g></g></svg>