<svg xmlns="http://www.w3.org/2000/svg" viewBox="0 0 24 24">
  <defs>
    <style>.a{fill:none;}.b{fill:#9d0832;}
    </style>
  </defs>
  <!--<path class="a" d="M0,0H24V24H0Z"/>-->
  <path class="b" d="M15.51,22h-7a1.51,1.51,0,0,1-1.08-.45l-5-5A1.49,1.49,0,0,1,2,15.51v-7a1.51,1.51,0,0,1,.45-1.08l5-5A1.51,1.51,0,0,1,8.5,2h7a1.53,1.53,0,0,1,1.08.45l4.95,5A1.51,1.51,0,0,1,22,8.5v7a1.49,1.49,0,0,1-.45,1.07l-4.95,5A1.53,1.53,0,0,1,15.51,22ZM8.69,20h6.62L20,15.31V8.69L15.31,4H8.69L4,8.69v6.62Z"/><path class="a" d="M4.14,4.14H19.86V19.86H4.14Z"/><path class="b" d="M16.58,16.59a1,1,0,0,1-1.41,0L12,13.42,8.83,16.59a1,1,0,1,1-1.42-1.42L10.58,12,7.41,8.84A1,1,0,0,1,8.83,7.42L12,10.59l3.17-3.17a1,1,0,0,1,1.41,1.42L13.42,12l3.16,3.16a1,1,0,0,1,0,1.43Z"/>
</svg>
