<svg xmlns="http://www.w3.org/2000/svg" width="24" height="24" viewBox="0 0 24 24"><defs><style>.a{fill:none;}.b{fill:#0F4D2E;}</style></defs><path class="a" d="M0,0H24V24H0Z"/><g transform="translate(2 2)"><path class="b" d="M12,4a8,8,0,1,1-8,8,8,8,0,0,1,8-8m0-2A10,10,0,1,0,22,12,10,10,0,0,0,12,2Z" transform="translate(-2 -2)"/><g transform="translate(4.489 5.99)"><path class="b" d="M10.48,16.29a.49.49,0,0,1-.69,0l-3-3.06a1,1,0,1,1,1.4-1.43l2,2h0l5.49-5.51a1.015,1.015,0,1,1,1.44,1.43Z" transform="translate(-6.489 -7.99)"/></g></g></svg>
